<svg width="384" height="217" viewBox="0 0 384 217" fill="none" xmlns="http://www.w3.org/2000/svg">
<path d="M298.044 128.113C297.909 128.113 297.773 128.112 297.636 128.11C297.157 128.103 296.776 127.703 296.797 127.225L296.797 127.214C296.818 126.751 297.206 126.398 297.67 126.404C313.315 126.635 316.287 113.301 316.793 109.855C316.857 109.415 317.254 109.104 317.698 109.139C318.193 109.179 318.547 109.631 318.468 110.121C317.855 113.898 314.45 128.113 298.044 128.113Z" fill="#40649F"/>
<path d="M288.314 197.974C288.314 198.745 292.51 199.37 297.685 199.37C302.86 199.37 307.055 198.745 307.055 197.974C307.055 197.203 302.86 196.578 297.685 196.578C292.51 196.578 288.314 197.203 288.314 197.974Z" fill="#9FC175"/>
<path d="M304.875 113.066C329.32 109.104 345.92 86.102 341.953 61.6892C337.985 37.2764 314.953 20.6978 290.509 24.6598C266.064 28.6219 249.464 51.6242 253.431 76.037C257.398 100.45 280.431 117.028 304.875 113.066Z" fill="#67924A"/>
<path d="M260.848 104.009C268.23 102.812 273.243 95.8657 272.045 88.4934C270.847 81.121 263.892 76.1145 256.509 77.311C249.127 78.5076 244.114 85.454 245.312 92.8264C246.51 100.199 253.466 105.205 260.848 104.009Z" fill="#67924A"/>
<path d="M270.03 114.551C277.508 114.469 283.504 108.349 283.422 100.881C283.341 93.4132 277.212 87.4252 269.734 87.5066C262.256 87.5881 256.26 93.708 256.342 101.176C256.423 108.644 262.552 114.632 270.03 114.551Z" fill="#67924A"/>
<path d="M285.177 119.791C292.655 119.791 298.717 113.736 298.717 106.267C298.717 98.7987 292.655 92.7441 285.177 92.7441C277.698 92.7441 271.636 98.7987 271.636 106.267C271.636 113.736 277.698 119.791 285.177 119.791Z" fill="#67924A"/>
<path d="M321.267 121.096C328.649 119.899 333.662 112.953 332.464 105.58C331.266 98.2079 324.31 93.2014 316.928 94.3979C309.546 95.5945 304.533 102.541 305.731 109.913C306.929 117.286 313.884 122.292 321.267 121.096Z" fill="#67924A"/>
<path d="M342.403 88.1218C349.882 88.1218 355.944 82.0672 355.944 74.5985C355.944 67.1298 349.882 61.0752 342.403 61.0752C334.925 61.0752 328.862 67.1298 328.862 74.5985C328.862 82.0672 334.925 88.1218 342.403 88.1218Z" fill="#67924A"/>
<path d="M322.187 45.1215C329.666 45.1215 335.728 39.0666 335.728 31.5976C335.728 24.1286 329.666 18.0737 322.187 18.0737C314.708 18.0737 308.646 24.1286 308.646 31.5976C308.646 39.0666 314.708 45.1215 322.187 45.1215Z" fill="#67924A"/>
<path d="M273.887 45.1215C281.366 45.1215 287.429 39.0666 287.429 31.5976C287.429 24.1286 281.366 18.0737 273.887 18.0737C266.408 18.0737 260.346 24.1286 260.346 31.5976C260.346 39.0666 266.408 45.1215 273.887 45.1215Z" fill="#67924A"/>
<path d="M258.673 67.2229C266.151 67.2229 272.214 61.1683 272.214 53.6996C272.214 46.2309 266.151 40.1763 258.673 40.1763C251.194 40.1763 245.132 46.2309 245.132 53.6996C245.132 61.1683 251.194 67.2229 258.673 67.2229Z" fill="#67924A"/>
<path d="M285.606 42.4497C293.369 40.6803 298.226 32.9608 296.454 25.2079C294.682 17.4549 286.953 12.6043 279.19 14.3738C271.427 16.1432 266.57 23.8626 268.342 31.6156C270.114 39.3686 277.843 44.2191 285.606 42.4497Z" fill="#67924A"/>
<path d="M201.163 114.395C204.267 111.493 204.427 106.627 201.521 103.526C198.615 100.426 193.742 100.266 190.638 103.169C187.534 106.072 187.374 110.938 190.28 114.038C193.186 117.138 198.059 117.298 201.163 114.395Z" fill="#67924A"/>
<path d="M253.314 75.3381C256.892 75.3381 259.793 72.4412 259.793 68.8675C259.793 65.2939 256.892 62.397 253.314 62.397C249.736 62.397 246.835 65.2939 246.835 68.8675C246.835 72.4412 249.736 75.3381 253.314 75.3381Z" fill="#67924A"/>
<path d="M250.925 85.4141C254.503 85.3687 257.367 82.4352 257.321 78.862C257.276 75.2887 254.338 72.4288 250.761 72.4742C247.183 72.5196 244.319 75.4531 244.365 79.0263C244.41 82.5996 247.347 85.4595 250.925 85.4141Z" fill="#67924A"/>
<path d="M261.174 43.855C264.753 43.855 267.653 40.958 267.653 37.3844C267.653 33.8108 264.753 30.9138 261.174 30.9138C257.596 30.9138 254.695 33.8108 254.695 37.3844C254.695 40.958 257.596 43.855 261.174 43.855Z" fill="#67924A"/>
<path d="M295.857 28.967C299.396 28.4396 301.837 25.1469 301.309 21.6126C300.781 18.0783 297.484 15.6408 293.945 16.1682C290.406 16.6957 287.965 19.9884 288.493 23.5227C289.022 27.057 292.319 29.4945 295.857 28.967Z" fill="#67924A"/>
<path d="M302.472 29.5026C306.99 29.5026 310.652 25.8453 310.652 21.3337C310.652 16.8221 306.99 13.1648 302.472 13.1648C297.955 13.1648 294.293 16.8221 294.293 21.3337C294.293 25.8453 297.955 29.5026 302.472 29.5026Z" fill="#67924A"/>
<path d="M315.674 28.5238C318.423 26.236 318.794 22.1558 316.504 19.4106C314.213 16.6654 310.127 16.2946 307.379 18.5824C304.63 20.8702 304.258 24.9503 306.549 27.6956C308.84 30.4408 312.925 30.8116 315.674 28.5238Z" fill="#67924A"/>
<path d="M343.903 44.7093C346.4 41.3852 345.726 36.6689 342.397 34.1751C339.069 31.6813 334.346 32.3543 331.849 35.6784C329.352 39.0026 330.026 43.7189 333.355 46.2127C336.683 48.7065 341.406 48.0334 343.903 44.7093Z" fill="#67924A"/>
<path d="M339.189 54.6395C342.718 54.048 345.099 50.7116 344.507 47.1873C343.914 43.663 340.574 41.2854 337.045 41.8769C333.516 42.4683 331.135 45.8047 331.728 49.329C332.32 52.8533 335.66 55.2309 339.189 54.6395Z" fill="#67924A"/>
<path d="M343.451 95.7329C347.029 95.7329 349.93 92.8359 349.93 89.2623C349.93 85.6887 347.029 82.7917 343.451 82.7917C339.872 82.7917 336.972 85.6887 336.972 89.2623C336.972 92.8359 339.872 95.7329 343.451 95.7329Z" fill="#67924A"/>
<path d="M342.915 103.427C346.391 102.575 348.517 99.0714 347.664 95.6007C346.811 92.1301 343.303 90.0069 339.828 90.8584C336.352 91.71 334.226 95.2139 335.079 98.6846C335.932 102.155 339.44 104.278 342.915 103.427Z" fill="#67924A"/>
<path d="M335.426 109.046C339.004 109.046 341.905 106.149 341.905 102.576C341.905 99.002 339.004 96.105 335.426 96.105C331.848 96.105 328.947 99.002 328.947 102.576C328.947 106.149 331.848 109.046 335.426 109.046Z" fill="#67924A"/>
<path d="M314.136 117.96C315.517 114.663 313.961 110.872 310.66 109.493C307.359 108.113 303.564 109.668 302.183 112.964C300.801 116.261 302.358 120.052 305.658 121.431C308.959 122.81 312.755 121.256 314.136 117.96Z" fill="#67924A"/>
<path d="M297.965 121.93C301.544 121.93 304.444 119.033 304.444 115.459C304.444 111.885 301.544 108.989 297.965 108.989C294.387 108.989 291.486 111.885 291.486 115.459C291.486 119.033 294.387 121.93 297.965 121.93Z" fill="#67924A"/>
<path d="M337.583 100.789C341.065 99.9676 343.222 96.4825 342.399 93.0047C341.577 89.5269 338.087 87.3732 334.605 88.1945C331.123 89.0157 328.966 92.5007 329.789 95.9786C330.611 99.4564 334.101 101.61 337.583 100.789Z" fill="#67924A"/>
<path d="M343.456 62.1528C347.034 62.1528 349.934 59.2559 349.934 55.6823C349.934 52.1087 347.034 49.2117 343.456 49.2117C339.877 49.2117 336.977 52.1087 336.977 55.6823C336.977 59.2559 339.877 62.1528 343.456 62.1528Z" fill="#67924A"/>
<path d="M354.883 70.9173C353.701 72.0981 353.289 73.6011 353.964 74.2744C354.639 74.9477 356.144 74.5371 357.326 73.3564C358.508 72.1757 358.92 70.6727 358.245 69.9994C357.57 69.3255 356.065 69.7366 354.883 70.9173Z" fill="#40649F"/>
<path d="M286.221 117.676C284.89 116.667 283.343 116.463 282.766 117.222C282.189 117.98 282.801 119.414 284.132 120.424C285.464 121.433 287.011 121.637 287.587 120.878C288.164 120.12 287.552 118.686 286.221 117.676Z" fill="#40649F"/>
<path d="M334.691 29.2168C333.509 30.3976 333.097 31.9005 333.772 32.5744C334.447 33.2478 335.951 32.8372 337.134 31.6565C338.316 30.4757 338.727 28.9728 338.053 28.2994C337.378 27.6255 335.873 28.0367 334.691 29.2168Z" fill="#40649F"/>
<path d="M335.689 31.643C334.032 31.861 332.79 32.8034 332.914 33.748C333.039 34.6926 334.483 35.2809 336.141 35.0629C337.798 34.8449 339.041 33.9026 338.916 32.958C338.792 32.0139 337.347 31.425 335.689 31.643Z" fill="#40649F"/>
<path d="M249.629 43.7058C250.812 44.8865 252.317 45.2976 252.991 44.6237C253.665 43.9504 253.254 42.4469 252.072 41.2667C250.889 40.086 249.384 39.6748 248.71 40.3487C248.035 41.0215 248.447 42.525 249.629 43.7058Z" fill="#40649F"/>
<path d="M251.658 40.582C251.876 42.2373 252.82 43.478 253.765 43.354C254.711 43.2294 255.3 41.7865 255.082 40.1312C254.864 38.4759 253.92 37.2351 252.974 37.3591C252.029 37.4843 251.439 38.9267 251.658 40.582Z" fill="#40649F"/>
<path d="M261.219 22.7834C261.438 24.4387 262.381 25.68 263.327 25.5554C264.273 25.4308 264.862 23.9879 264.644 22.3326C264.425 20.6773 263.482 19.4365 262.536 19.5605C261.591 19.6851 261.001 21.1281 261.219 22.7834Z" fill="#40649F"/>
<path d="M243.959 94.1425C245.604 94.4426 247.076 93.9256 247.247 92.9889C247.419 92.0517 246.224 91.0488 244.58 90.7492C242.936 90.4491 241.463 90.9655 241.292 91.9028C241.12 92.8394 242.315 93.8423 243.959 94.1425Z" fill="#40649F"/>
<path d="M352.419 77.3476C351.237 78.5283 350.825 80.0313 351.5 80.7052C352.175 81.3785 353.68 80.9674 354.862 79.7872C356.044 78.6065 356.456 77.1035 355.781 76.4302C355.107 75.7557 353.602 76.1668 352.419 77.3476Z" fill="#40649F"/>
<path d="M246.036 49.1933C247.702 49.3309 249.117 48.6723 249.195 47.7231C249.274 46.774 247.987 45.8929 246.321 45.7552C244.655 45.6176 243.24 46.2762 243.162 47.2254C243.083 48.175 244.371 49.0562 246.036 49.1933Z" fill="#40649F"/>
<path d="M250.904 100.072C251.34 98.4605 250.947 96.9525 250.026 96.7039C249.105 96.4553 248.005 97.5607 247.57 99.1729C247.133 100.785 247.526 102.293 248.447 102.541C249.369 102.789 250.468 101.684 250.904 100.072Z" fill="#40649F"/>
<path d="M289.715 16.3493C290.992 15.271 291.526 13.8072 290.91 13.08C290.295 12.3529 288.76 12.6372 287.484 13.716C286.208 14.7942 285.673 16.2581 286.289 16.9852C286.905 17.7124 288.439 17.4275 289.715 16.3493Z" fill="#40649F"/>
<path d="M329.771 116.795C329.683 115.128 328.839 113.817 327.886 113.867C326.934 113.918 326.234 115.31 326.322 116.977C326.41 118.644 327.254 119.955 328.207 119.905C329.159 119.855 329.86 118.462 329.771 116.795Z" fill="#40649F"/>
<path d="M291.56 65.5901C292.837 64.5119 293.372 63.048 292.756 62.3208C292.14 61.5937 290.606 61.8786 289.329 62.9568C288.053 64.035 287.517 65.4989 288.134 66.2261C288.75 66.9538 290.284 66.6689 291.56 65.5901Z" fill="#40649F"/>
<path d="M243.851 90.4208C244.973 91.6587 246.456 92.1435 247.163 91.5041C247.87 90.8647 247.534 89.3431 246.412 88.1051C245.29 86.8678 243.807 86.3825 243.1 87.0218C242.393 87.6612 242.729 89.1828 243.851 90.4208Z" fill="#40649F"/>
<path d="M346.624 49.4873C345.441 50.668 345.03 52.171 345.704 52.8443C346.379 53.5176 347.884 53.1071 349.066 51.9263C350.248 50.7456 350.66 49.2426 349.985 48.5693C349.311 47.896 347.806 48.3071 346.624 49.4873Z" fill="#40649F"/>
<path d="M272.665 41.7286C271.483 42.9094 271.072 44.4123 271.746 45.0857C272.42 45.759 273.926 45.3484 275.107 44.1677C276.29 42.9869 276.701 41.484 276.027 40.8106C275.352 40.1367 273.848 40.5479 272.665 41.7286Z" fill="#40649F"/>
<path d="M345.606 98.4027C344.423 99.5834 344.012 101.086 344.687 101.76C345.361 102.433 346.866 102.022 348.048 100.842C349.23 99.661 349.642 98.158 348.967 97.4847C348.293 96.8114 346.787 97.2219 345.606 98.4027Z" fill="#40649F"/>
<path d="M269.909 40.2588C269.771 41.9226 270.431 43.335 271.381 43.4137C272.332 43.4918 273.214 42.2069 273.351 40.5425C273.489 38.8787 272.83 37.4658 271.879 37.3877C270.928 37.3095 270.046 38.595 269.909 40.2588Z" fill="#40649F"/>
<path d="M324.241 40.6415C323.912 42.2781 324.402 43.7573 325.337 43.9453C326.272 44.1333 327.298 42.9582 327.628 41.3216C327.957 39.685 327.467 38.2058 326.531 38.0178C325.596 37.8298 324.571 39.0043 324.241 40.6415Z" fill="#40649F"/>
<path d="M316.044 18.8033C315.715 20.44 316.205 21.9191 317.14 22.1072C318.075 22.2952 319.1 21.1201 319.43 19.4835C319.76 17.8469 319.269 16.3671 318.334 16.1797C317.399 15.9917 316.374 17.1667 316.044 18.8033Z" fill="#40649F"/>
<path d="M284.388 13.7654C284.058 15.402 284.549 16.8812 285.484 17.0692C286.419 17.2572 287.444 16.0827 287.774 14.4455C288.104 12.8089 287.613 11.3297 286.678 11.1417C285.743 10.9543 284.718 12.1288 284.388 13.7654Z" fill="#40649F"/>
<path d="M349.61 51.9901C347.953 52.2082 346.71 53.1505 346.835 54.0951C346.96 55.0397 348.404 55.6281 350.062 55.4101C351.719 55.192 352.962 54.2497 352.837 53.3051C352.713 52.3605 351.268 51.7716 349.61 51.9901Z" fill="#40649F"/>
<path d="M321.005 120.533C320.176 121.983 320.177 123.541 321.005 124.013C321.834 124.485 323.177 123.692 324.005 122.242C324.833 120.791 324.833 119.233 324.004 118.761C323.176 118.289 321.833 119.082 321.005 120.533Z" fill="#40649F"/>
<path d="M319.757 114.573C318.27 115.334 317.417 116.64 317.852 117.487C318.288 118.335 319.846 118.404 321.334 117.642C322.821 116.88 323.674 115.575 323.239 114.728C322.803 113.88 321.245 113.811 319.757 114.573Z" fill="#40649F"/>
<path d="M321.399 72.0523C319.912 72.814 319.058 74.1187 319.494 74.9665C319.929 75.8143 321.488 75.8833 322.975 75.1217C324.463 74.36 325.316 73.0552 324.88 72.2075C324.445 71.3597 322.886 71.2901 321.399 72.0523Z" fill="#40649F"/>
<path d="M304.86 94.6544C304.253 93.0988 303.041 92.118 302.151 92.464C301.263 92.81 301.034 94.3515 301.642 95.9071C302.249 97.4627 303.461 98.4436 304.35 98.0976C305.239 97.7515 305.467 96.2101 304.86 94.6544Z" fill="#40649F"/>
<path d="M291.363 55.9601C290.755 54.4045 289.543 53.4236 288.654 53.7696C287.766 54.1156 287.537 55.6571 288.145 57.2128C288.752 58.7684 289.964 59.7492 290.853 59.4032C291.741 59.0572 291.97 57.5157 291.363 55.9601Z" fill="#40649F"/>
<path d="M261.099 25.6911C259.592 24.9685 258.035 25.0789 257.623 25.938C257.21 26.7965 258.097 28.0786 259.604 28.8012C261.112 29.5238 262.668 29.4134 263.081 28.5549C263.493 27.6958 262.606 26.4137 261.099 25.6911Z" fill="#40649F"/>
<path d="M331.938 24.0756C331.608 25.7128 332.099 27.1919 333.034 27.3794C333.969 27.5674 334.994 26.3929 335.324 24.7557C335.653 23.1191 335.163 21.6399 334.228 21.4519C333.292 21.2639 332.267 22.439 331.938 24.0756Z" fill="#40649F"/>
<path d="M353.696 78.986C352.039 79.2041 350.796 80.1464 350.921 81.091C351.045 82.0356 352.49 82.624 354.148 82.4059C355.805 82.1879 357.048 81.2456 356.923 80.301C356.799 79.357 355.354 78.768 353.696 78.986Z" fill="#40649F"/>
<path d="M250.449 64.7807C251.478 63.7534 251.836 62.4458 251.249 61.8597C250.662 61.2735 249.353 61.6314 248.324 62.6582C247.295 63.6854 246.938 64.993 247.524 65.5791C248.111 66.1653 249.421 65.8079 250.449 64.7807Z" fill="#6FA1D8"/>
<path d="M310.186 24.0987C311.345 24.9771 312.69 25.1543 313.192 24.4946C313.694 23.8343 313.162 22.5873 312.004 21.7089C310.845 20.8306 309.5 20.6533 308.997 21.3131C308.496 21.9728 309.028 23.2204 310.186 24.0987Z" fill="#6FA1D8"/>
<path d="M268.018 101.061C269.046 100.034 269.404 98.7261 268.817 98.1399C268.23 97.5538 266.921 97.9117 265.892 98.9384C264.864 99.9657 264.506 101.273 265.093 101.859C265.68 102.446 266.989 102.088 268.018 101.061Z" fill="#6FA1D8"/>
<path d="M267.149 98.9504C268.591 98.7607 269.672 97.9407 269.563 97.119C269.455 96.2973 268.198 95.7853 266.756 95.975C265.314 96.1648 264.233 96.9848 264.342 97.8065C264.45 98.6276 265.707 99.1401 267.149 98.9504Z" fill="#6FA1D8"/>
<path d="M342.023 88.4554C340.995 87.4281 339.685 87.0708 339.099 87.6569C338.512 88.243 338.87 89.5506 339.898 90.5779C340.927 91.6052 342.236 91.9625 342.823 91.3764C343.41 90.7903 343.052 89.4827 342.023 88.4554Z" fill="#6FA1D8"/>
<path d="M340.258 91.1725C340.068 89.7324 339.247 88.6525 338.424 88.7612C337.601 88.8694 337.089 90.1249 337.279 91.565C337.469 93.0051 338.29 94.085 339.113 93.9763C339.935 93.8681 340.448 92.6126 340.258 91.1725Z" fill="#6FA1D8"/>
<path d="M331.939 106.658C331.749 105.218 330.928 104.138 330.105 104.247C329.283 104.355 328.769 105.611 328.959 107.051C329.149 108.491 329.97 109.571 330.793 109.462C331.616 109.353 332.129 108.098 331.939 106.658Z" fill="#6FA1D8"/>
<path d="M346.956 44.5745C345.525 44.3134 344.244 44.763 344.095 45.578C343.946 46.3934 344.986 47.2655 346.416 47.5266C347.847 47.7877 349.128 47.338 349.277 46.5231C349.426 45.7076 348.387 44.835 346.956 44.5745Z" fill="#6FA1D8"/>
<path d="M252.594 59.1859C253.622 58.1586 253.98 56.851 253.393 56.2649C252.806 55.6788 251.497 56.0367 250.469 57.064C249.44 58.0912 249.082 59.3988 249.669 59.985C250.256 60.5705 251.565 60.2126 252.594 59.1859Z" fill="#6FA1D8"/>
<path d="M345.15 83.6808C343.7 83.5613 342.469 84.1339 342.401 84.9601C342.333 85.7858 343.453 86.5525 344.903 86.672C346.352 86.7915 347.583 86.219 347.651 85.3927C347.719 84.5665 346.599 83.8003 345.15 83.6808Z" fill="#6FA1D8"/>
<path d="M340.915 39.4146C340.535 40.8167 340.877 42.1289 341.678 42.3452C342.48 42.5615 343.436 41.5994 343.816 40.1972C344.195 38.795 343.853 37.4829 343.052 37.2666C342.251 37.0508 341.294 38.0124 340.915 39.4146Z" fill="#6FA1D8"/>
<path d="M307.147 112.256C306.037 113.195 305.571 114.468 306.107 115.101C306.643 115.733 307.978 115.486 309.088 114.548C310.198 113.609 310.664 112.336 310.128 111.703C309.593 111.07 308.258 111.318 307.147 112.256Z" fill="#6FA1D8"/>
<path d="M272.297 24.8652C272.374 26.3161 273.107 27.456 273.936 27.4124C274.765 27.3688 275.374 26.1569 275.298 24.7066C275.221 23.2558 274.487 22.1158 273.658 22.1594C272.83 22.203 272.22 23.4143 272.297 24.8652Z" fill="#6FA1D8"/>
<path d="M305.543 69.4153C304.432 70.3537 303.967 71.6273 304.503 72.2599C305.039 72.8924 306.373 72.645 307.484 71.7066C308.594 70.7682 309.059 69.4946 308.524 68.8621C307.988 68.2295 306.653 68.477 305.543 69.4153Z" fill="#6FA1D8"/>
<path d="M347.051 47.8119C346.075 46.7348 344.785 46.3129 344.17 46.8695C343.554 47.4257 343.847 48.7497 344.823 49.8262C345.8 50.9033 347.09 51.3247 347.705 50.7686C348.32 50.2124 348.027 48.889 347.051 47.8119Z" fill="#6FA1D8"/>
<path d="M257.634 83.4251C258.663 82.3978 259.021 81.0902 258.434 80.5041C257.848 79.9179 256.538 80.2753 255.51 81.3026C254.481 82.3298 254.123 83.6374 254.71 84.2235C255.296 84.8102 256.606 84.4523 257.634 83.4251Z" fill="#6FA1D8"/>
<path d="M321.98 90.1756C323.009 89.1483 323.367 87.8407 322.78 87.2546C322.193 86.6684 320.884 87.0258 319.855 88.053C318.827 89.0803 318.469 90.3879 319.056 90.974C319.643 91.5607 320.952 91.2028 321.98 90.1756Z" fill="#6FA1D8"/>
<path d="M258.522 40.8673C259.55 39.84 259.908 38.5325 259.321 37.9463C258.734 37.3602 257.425 37.7181 256.396 38.7448C255.368 39.7721 255.01 41.0797 255.597 41.6658C256.184 42.2519 257.493 41.8946 258.522 40.8673Z" fill="#6FA1D8"/>
<path d="M324.38 91.4539C324.5 90.0064 323.926 88.777 323.099 88.709C322.272 88.641 321.505 89.7589 321.385 91.207C321.265 92.6544 321.839 93.8833 322.666 93.9518C323.493 94.0198 324.26 92.9019 324.38 91.4539Z" fill="#6FA1D8"/>
<path d="M284.24 110.121C284.527 108.697 284.1 107.41 283.286 107.247C282.472 107.083 281.58 108.105 281.293 109.529C281.007 110.954 281.434 112.24 282.247 112.404C283.061 112.568 283.953 111.546 284.24 110.121Z" fill="#6FA1D8"/>
<path d="M311.783 114.504C312.07 113.08 311.643 111.793 310.829 111.63C310.015 111.466 309.123 112.488 308.836 113.913C308.549 115.337 308.976 116.623 309.79 116.787C310.604 116.951 311.496 115.929 311.783 114.504Z" fill="#6FA1D8"/>
<path d="M255.037 81.2478C256.479 81.0581 257.56 80.238 257.451 79.4163C257.343 78.5946 256.086 78.0827 254.644 78.2724C253.202 78.4621 252.12 79.2821 252.229 80.1038C252.338 80.9255 253.595 81.4375 255.037 81.2478Z" fill="#6FA1D8"/>
<path d="M279.924 21.6136C280.645 20.3519 280.644 18.9962 279.924 18.5856C279.203 18.175 278.034 18.8648 277.314 20.1271C276.593 21.3888 276.594 22.7445 277.314 23.1551C278.036 23.5657 279.204 22.8754 279.924 21.6136Z" fill="#6FA1D8"/>
<path d="M281.009 26.7987C282.303 26.1355 283.046 25.0007 282.667 24.2633C282.288 23.526 280.932 23.4654 279.638 24.1285C278.343 24.7917 277.601 25.9266 277.98 26.6639C278.359 27.4012 279.715 27.4618 281.009 26.7987Z" fill="#6FA1D8"/>
<path d="M329.049 21.9774C329.578 23.3308 330.633 24.1843 331.406 23.883C332.179 23.5817 332.378 22.2407 331.849 20.8872C331.321 19.5338 330.266 18.6804 329.493 18.9816C328.72 19.2823 328.521 20.6239 329.049 21.9774Z" fill="#6FA1D8"/>
<path d="M304.271 87.9198C304.799 89.2732 305.854 90.1261 306.628 89.8254C307.401 89.5247 307.6 88.1831 307.071 86.8296C306.543 85.4762 305.488 84.6227 304.715 84.924C303.942 85.2253 303.743 86.5663 304.271 87.9198Z" fill="#6FA1D8"/>
<path d="M332.044 104.128C333.355 104.757 334.71 104.661 335.069 103.914C335.428 103.167 334.656 102.051 333.345 101.423C332.034 100.794 330.68 100.89 330.321 101.637C329.961 102.384 330.733 103.5 332.044 104.128Z" fill="#6FA1D8"/>
<path d="M270.413 105.534C270.7 104.11 270.273 102.823 269.459 102.66C268.645 102.496 267.753 103.518 267.466 104.942C267.179 106.367 267.606 107.653 268.42 107.817C269.234 107.981 270.126 106.958 270.413 105.534Z" fill="#6FA1D8"/>
<path d="M251.481 57.7602C252.923 57.5705 254.004 56.7505 253.896 55.9288C253.788 55.1071 252.53 54.5951 251.089 54.7849C249.647 54.9746 248.565 55.7946 248.673 56.6163C248.782 57.438 250.038 57.9505 251.481 57.7602Z" fill="#6FA1D8"/>
<path d="M297.685 197.974C296.993 197.974 296.431 197.301 296.431 196.47V85.6154C296.431 84.7852 296.993 84.1118 297.685 84.1118C298.378 84.1118 298.94 84.7852 298.94 85.6154V196.47C298.94 197.301 298.378 197.974 297.685 197.974Z" fill="#40649F"/>
<path d="M296.031 103.745C273.767 103.745 269.544 84.0293 268.874 79.5515C268.801 79.0679 269.158 78.625 269.646 78.586L270.204 78.5418C270.651 78.5061 271.051 78.8232 271.111 79.2672C271.672 83.4273 275.374 101.927 296.799 101.471C297.262 101.462 297.653 101.816 297.673 102.28L297.698 102.852C297.719 103.323 297.351 103.725 296.879 103.735C296.593 103.742 296.31 103.745 296.031 103.745Z" fill="#40649F"/>
<path d="M286 189.956H31.0771V199.357H286V189.956Z" fill="#40649F"/>
<path d="M264.773 0H52.3057V9.03027H264.773V0Z" fill="#9FC175"/>
<path d="M51.3096 15.5652H31.0771V18.9743H51.3096V15.5652Z" fill="#1C344D"/>
<path d="M51.3096 37.4666H31.0771V40.8757H51.3096V37.4666Z" fill="#1C344D"/>
<path d="M273.279 17.468H43.7979V181.315H273.279V17.468Z" fill="#F7F7FF"/>
<path d="M116.651 95.448H55.9463V186.218H116.651V95.448Z" fill="#40649F"/>
<path d="M110.817 101.041H61.7803V186.219H110.817V101.041Z" fill="#B0A8C6"/>
<path d="M260.644 95.448H125.034V167.712H260.644V95.448Z" fill="#40649F"/>
<path d="M110.817 101.041H61.7803V169.136H110.817V101.041Z" fill="#E9E4F2"/>
<path d="M256.277 101.041H129.4V156.634H256.277V101.041Z" fill="#E9E4F2"/>
<mask id="mask0_349_117" style="mask-type:luminance" maskUnits="userSpaceOnUse" x="129" y="101" width="128" height="56">
<path d="M256.277 101.041H129.4V156.634H256.277V101.041Z" fill="white"/>
</mask>
<g mask="url(#mask0_349_117)">
<path d="M199.504 139.993C199.504 139.993 199.06 141.458 198.915 141.978C198.771 142.498 198.366 143.494 198.149 143.436C197.933 143.378 198.366 141.429 198.25 141.314C198.134 141.198 197.21 142.195 197.123 142.454C197.036 142.714 197.325 144.677 197.123 144.691C196.92 144.706 196.415 143.695 196.285 142.569C196.155 141.444 197.78 139.168 197.78 139.168L199.504 139.993Z" fill="#CEC7DD"/>
<path d="M209.343 140.128C209.253 135.37 205.801 134.951 205.801 134.951C205.801 134.951 202.35 134.533 202.202 139.262C202.089 142.891 203.107 152.786 203.586 157.195C203.722 158.439 204.604 159.46 205.653 159.588C206.701 159.715 207.595 158.909 207.745 157.7C208.277 153.413 209.412 143.779 209.343 140.128Z" fill="#CEC7DD"/>
<path d="M217.481 140.128C217.39 135.37 213.939 134.951 213.939 134.951C213.939 134.951 210.487 134.533 210.34 139.262C210.226 142.891 211.244 152.786 211.724 157.196C211.859 158.439 212.742 159.46 213.79 159.588C214.839 159.715 215.732 158.909 215.883 157.7C216.415 153.413 217.55 143.779 217.481 140.128Z" fill="#CEC7DD"/>
<path d="M207.796 157.331C207.702 155.347 205.768 155.347 205.768 155.347C205.768 155.347 203.833 155.347 203.739 157.331C203.645 159.315 204.711 174.456 204.711 174.456H207.215C207.215 174.456 207.89 159.315 207.796 157.331Z" fill="#CEC7DD"/>
<path d="M215.615 155.982C214.976 154.101 213.117 154.635 213.117 154.635C213.117 154.635 211.258 155.168 211.716 157.101C212.174 159.034 217.385 173.292 217.385 173.292L219.792 172.602C219.791 172.601 216.254 157.863 215.615 155.982Z" fill="#CEC7DD"/>
<path d="M214.757 116.761C214.757 116.761 217.36 116.349 217.508 119.874C217.637 122.96 217.946 127.512 218.024 129.387C218.05 130.014 217.465 130.58 216.681 130.687C215.897 130.795 215.18 130.409 215.035 129.799C214.602 127.972 213.618 123.517 212.953 120.501C212.195 117.061 214.757 116.761 214.757 116.761Z" fill="#CEC7DD"/>
<path d="M214.137 116.401C214.042 116.372 213.947 116.343 213.851 116.314C211.104 115.493 208.253 115.493 205.505 116.313C205.408 116.342 205.312 116.371 205.216 116.4C204.884 116.504 204.63 116.859 204.564 117.308C204.114 120.408 204.539 130.516 204.696 133.858C204.725 134.468 205.101 134.941 205.556 134.941H209.672H209.68H213.796C214.251 134.941 214.627 134.468 214.655 133.858C214.813 130.516 215.238 120.408 214.787 117.308C214.722 116.859 214.468 116.505 214.137 116.401Z" fill="#CEC7DD"/>
<path d="M217.044 137.526C216.225 133.112 214.661 131.574 214.661 131.574H204.596C204.596 131.574 203.109 133.701 202.289 138.115C202.17 138.756 202.456 139.403 203.014 139.76C204.113 140.464 206.253 141.463 209.556 141.463C212.859 141.463 214.999 140.464 216.098 139.76C216.656 139.403 217.163 138.167 217.044 137.526Z" fill="#CEC7DD"/>
<path d="M211.657 111.77H207.679V116.594H211.657V111.77Z" fill="#CEC7DD"/>
<path d="M211.544 113.429C211.544 113.429 210.391 114.889 207.679 114.889C207.679 113.089 207.679 112.815 207.679 112.815L211.544 113.429Z" fill="#CEC7DD"/>
<path d="M205.013 116.761C205.013 116.761 202.41 116.349 202.263 119.874C202.133 122.96 201.824 127.512 201.746 129.387C201.72 130.014 202.305 130.58 203.089 130.687C203.873 130.795 204.59 130.409 204.735 129.799C205.168 127.972 206.152 123.517 206.818 120.501C207.576 117.061 205.013 116.761 205.013 116.761Z" fill="#CEC7DD"/>
<path d="M203.581 127.839C203.581 127.839 201.934 127.094 200.785 130.433C199.779 133.357 198.214 137.653 197.603 139.43C197.399 140.024 197.628 140.642 198.129 140.852C198.63 141.061 199.233 140.791 199.512 140.229C200.35 138.546 202.345 134.434 203.695 131.649C205.234 128.473 203.581 127.839 203.581 127.839Z" fill="#CEC7DD"/>
<path d="M217.062 156.33C217.062 155.199 221.197 136.617 214.78 131.022H204.575C204.575 131.022 201.745 134.854 201.745 143.79C201.745 152.724 202.263 173.769 202.263 173.769H208.438L209.948 141.458C209.948 141.458 210.487 152.832 210.971 156.868C211.456 160.905 215.42 173.293 215.42 173.293L220.888 171.831C220.888 171.831 217.062 157.46 217.062 156.33Z" fill="#CEC7DD"/>
<path d="M207.678 115.353C207.678 115.353 203.595 115.698 202.263 117.631C201.196 119.18 201.31 127.212 200.94 128.45C200.57 129.688 196.025 138.208 197.603 139.431C199.183 140.653 200.039 141.076 200.462 140.653C200.886 140.23 201.971 137.492 201.971 137.492C201.971 137.492 209.409 138.461 214.016 138.461C218.624 138.461 219.378 136.044 219.001 134.346C218.624 132.648 218.544 125.005 218.026 121.13C217.509 117.255 217.57 116.789 211.657 115.353C209.355 116.124 207.678 115.353 207.678 115.353Z" fill="#CEC7DD"/>
<path d="M218.02 129.885C218.02 129.885 217.498 131.615 214.224 130.282C211.357 129.115 207.088 127.466 205.346 126.757C204.764 126.52 204.449 125.94 204.621 125.426C204.793 124.912 205.393 124.636 206.001 124.795C207.821 125.272 212.235 126.477 215.222 127.293C218.63 128.225 218.02 129.885 218.02 129.885Z" fill="#CEC7DD"/>
<path d="M206.061 128.113C205.435 127.763 205.116 127.039 205.29 126.343C205.485 125.567 205.795 124.622 206.221 124.197C207.007 123.412 214.017 126.081 214.017 126.081C214.017 126.081 213.726 119.217 215.42 116.594C217.924 117.308 217.978 118.492 218.624 124.413C219.271 130.333 218.091 132.055 215.42 132.055C213.349 132.055 208.244 129.333 206.061 128.113Z" fill="#CEC7DD"/>
<path d="M202.056 126.203C202.071 126.004 203.579 126.034 203.579 126.034C203.579 126.034 201.53 125.555 201.557 125.344C201.585 125.134 203.646 125.503 203.646 125.503C203.646 125.503 201.492 124.697 201.561 124.496C201.63 124.294 203.709 124.942 203.709 124.942C203.709 124.942 201.73 124.005 201.874 123.819C202.018 123.633 204.653 124.625 204.653 124.625C204.653 124.625 203.346 123.706 203.373 123.51C203.392 123.373 203.742 123.553 204.312 123.799C205.359 124.251 206.146 124.935 206.146 124.935L205.793 126.628C205.793 126.628 202.041 126.402 202.056 126.203Z" fill="#CEC7DD"/>
<path d="M207.9 114.4H208.928C211.429 114.4 213.475 112.356 213.475 109.859V107.791C213.475 106.226 212.193 104.945 210.625 104.945H209.411C207.844 104.945 206.562 106.226 206.562 107.791V113.063C206.562 113.798 207.164 114.4 207.9 114.4Z" fill="#CEC7DD"/>
<path d="M206.562 109.673C206.562 109.673 204.768 111.945 206.562 111.945V109.673Z" fill="#CEC7DD"/>
<path d="M210.549 110.186C210.549 110.186 209.365 108.881 209.644 106.237C207.346 106.237 206.734 106.828 206.734 106.828C206.734 106.828 205.325 105.611 207.136 104.116C208.947 102.621 213.544 103.003 214.206 105.994C214.867 108.985 214.488 112.064 211.595 113.529C211.838 111.316 210.549 110.186 210.549 110.186Z" fill="#CEC7DD"/>
<path d="M209.504 110.351H206.132C206.132 110.351 205.638 110.931 205.638 111.714C205.638 112.498 206.659 114.163 207.69 114.464C208.722 114.765 210.181 114.223 210.181 114.223L209.504 110.351Z" fill="#CEC7DD"/>
<path d="M210.068 110.146C209.8 110.848 210.025 111.585 210.571 111.792C211.116 112 211.775 111.599 212.042 110.896C212.31 110.194 212.085 109.457 211.539 109.25C210.994 109.043 210.335 109.444 210.068 110.146Z" fill="#CEC7DD"/>
<path d="M258.811 133.597H128.189V181.744H258.811V133.597Z" fill="#F2F0F7"/>
<path d="M158.046 138.28C158.046 138.28 158.497 139.575 158.47 140.092C158.442 140.609 158.266 141.628 158.041 141.619C157.818 141.611 157.814 139.694 157.675 139.61C157.537 139.526 156.853 140.653 156.825 140.915C156.797 141.176 157.51 142.955 157.316 143.011C157.121 143.067 156.407 142.227 156.033 141.199C155.659 140.172 156.537 138.605 156.537 138.605L158.046 138.28Z" fill="#CEC7DD"/>
<path d="M182.009 134.191C182.009 134.191 183.355 134.634 183.895 134.613C184.435 134.591 185.497 134.431 185.49 134.216C185.484 134.001 183.485 133.98 183.399 133.847C183.312 133.714 184.494 133.067 184.767 133.044C185.04 133.019 186.888 133.718 186.948 133.532C187.008 133.346 186.138 132.653 185.07 132.286C184.002 131.919 182.361 132.747 182.361 132.747L182.009 134.191Z" fill="#CEC7DD"/>
<path d="M155.785 125.934C155.785 125.934 153.983 126.086 154.623 129.42C155.183 132.341 155.932 136.671 156.272 138.445C156.386 139.038 156.891 139.447 157.43 139.386C157.969 139.326 158.361 138.816 158.329 138.214C158.232 136.412 157.949 132.032 157.756 129.068C157.536 125.686 155.785 125.934 155.785 125.934Z" fill="#CEC7DD"/>
<path d="M169.246 115.794C169.151 115.766 169.056 115.738 168.961 115.71C166.213 114.923 163.362 114.923 160.614 115.709C160.518 115.737 160.421 115.765 160.325 115.794C159.994 115.893 159.74 116.234 159.674 116.665C159.223 119.642 159.648 129.348 159.805 132.557C159.834 133.143 160.21 133.598 160.665 133.598H164.781H164.789H168.905C169.36 133.598 169.736 133.143 169.765 132.557C169.922 129.349 170.347 119.642 169.896 116.665C169.832 116.234 169.578 115.893 169.246 115.794Z" fill="#CEC7DD"/>
<path d="M157.753 155.671C157.753 155.649 157.752 155.627 157.752 155.606C157.688 155.451 157.739 155.663 157.753 155.671Z" fill="#CEC7DD"/>
<path d="M172.18 138.009C172.17 136.946 172.069 135.888 171.874 134.841C171.872 134.832 171.871 134.825 171.87 134.821C171.05 130.583 169.771 130.365 169.771 130.365H159.561C159.561 130.365 158.559 130.873 157.74 135.112L157.634 135.895C157.453 137.228 157.352 138.567 157.329 139.911C157.255 144.376 157.296 152.121 157.753 155.67C157.813 158.955 158.861 171.541 158.861 171.541H163.076C163.076 171.541 163.843 157.002 163.736 155.097C163.736 155.088 163.733 155.081 163.733 155.072C164.015 153.136 164.418 150.272 164.767 147.4C165.116 150.272 165.519 153.136 165.801 155.072C165.801 155.081 165.798 155.088 165.798 155.097C165.691 157.002 166.458 171.541 166.458 171.541H170.674C170.674 171.541 171.722 158.955 171.781 155.67C172.248 152.037 172.224 142.743 172.18 138.009Z" fill="#CEC7DD"/>
<path d="M167.541 111.347H163.562V115.98H167.541V111.347Z" fill="#CEC7DD"/>
<path d="M161.222 109.617C161.222 110.22 161.617 110.709 162.105 110.709C162.592 110.709 162.987 110.22 162.987 109.617C162.987 109.015 162.592 108.526 162.105 108.526C161.617 108.526 161.222 109.015 161.222 109.617Z" fill="#CEC7DD"/>
<path d="M168.134 109.617C168.134 110.22 168.529 110.708 169.017 110.708C169.504 110.708 169.9 110.22 169.9 109.617C169.9 109.015 169.504 108.526 169.017 108.526C168.529 108.526 168.134 109.015 168.134 109.617Z" fill="#CEC7DD"/>
<path d="M165.491 113.663H165.63C167.494 113.663 169.018 112.141 169.018 110.28V107.372C169.018 105.839 167.761 104.584 166.226 104.584H164.897C163.361 104.584 162.104 105.839 162.104 107.372V110.28C162.104 112.141 163.629 113.663 165.491 113.663Z" fill="#CEC7DD"/>
<path d="M160.651 116.307C160.651 116.307 158.218 115.337 157.246 118.593C156.396 121.446 155.026 125.625 154.509 127.358C154.337 127.937 154.773 128.596 155.509 128.873C156.246 129.15 157.034 128.952 157.318 128.415C158.168 126.807 160.172 122.869 161.526 120.204C163.072 117.163 160.651 116.307 160.651 116.307Z" fill="#CEC7DD"/>
<path d="M169.968 115.451C169.968 115.451 167.409 116.054 168.641 119.229C169.72 122.009 171.201 126.153 171.857 127.843C172.076 128.407 172.835 128.69 173.599 128.495C174.364 128.299 174.874 127.69 174.771 127.097C174.462 125.319 173.641 121.009 173.083 118.092C172.447 114.765 169.968 115.451 169.968 115.451Z" fill="#CEC7DD"/>
<path d="M172.039 126.26C172.039 126.26 170.598 127.477 173.6 129.268C176.229 130.837 180.248 133.036 181.846 133.989C182.379 134.307 183.034 134.225 183.351 133.802C183.667 133.379 183.537 132.758 183.052 132.376C181.597 131.231 178.029 128.483 175.614 126.624C172.858 124.502 172.039 126.26 172.039 126.26Z" fill="#CEC7DD"/>
<path d="M163.563 114.918C163.563 114.918 159.264 115.803 157.636 116.532C156.008 117.26 154.486 125.067 154.486 125.067L158.331 126.709L156.748 137.02C156.555 138.276 157.461 139.451 158.773 139.627C161.518 139.994 166.307 140.374 171.268 139.542C172.465 139.341 173.296 138.281 173.217 137.118C172.592 127.855 171.311 120.085 171.311 120.085L171.796 126.673L175.519 125.309L173.975 116.472C173.58 115.63 172.762 115.041 171.808 114.912L167.583 114.343C167.583 114.343 165.799 115.855 163.563 114.918Z" fill="#CEC7DD"/>
<path d="M165.379 114.058C165.379 114.058 167.9 114.175 169.028 111.695C170.156 109.215 170.687 106.746 168.634 104.778C166.582 102.81 163.706 103.497 162.672 104.489C161.638 105.481 160.703 106.852 161.171 109.477C161.637 112.104 163.463 114.058 165.379 114.058Z" fill="#CEC7DD"/>
<path d="M147.373 113.236H116.652V169.026H147.373V113.236Z" fill="#CEC7DD"/>
<path d="M258.809 118.611H228.088V169.026H258.809V118.611Z" fill="#CEC7DD"/>
</g>
<path d="M275.884 180.338H41.1934V189.956H275.884V180.338Z" fill="#67924A"/>
<path d="M113.01 180.338H59.5869V189.956H113.01V180.338Z" fill="#9C95B5"/>
<path d="M116.651 189.956H55.9463V199.357H116.651V189.956Z" fill="#8A83A5"/>
<path d="M27.0447 201.087H24.7119V205.011H27.0447V201.087Z" fill="#6FB457"/>
<path d="M47.7937 201.087H45.4609V205.011H47.7937V201.087Z" fill="#6FB457"/>
<path d="M48.96 165.283H23.5459V202.682H48.96V165.283Z" fill="#9FC175"/>
<path d="M47.6088 166.632H24.8955V201.333H47.6088V166.632Z" fill="#1C344D"/>
<path d="M101.475 111.143H61.7803V169.135H101.475V111.143Z" fill="#CEC7DD"/>
<path d="M67.9219 130.401L81.6793 126.259V112.52L67.9219 116.661V130.401Z" fill="white"/>
<mask id="mask1_349_117" style="mask-type:luminance" maskUnits="userSpaceOnUse" x="61" y="101" width="50" height="80">
<path d="M110.817 101.041H61.7803V180.338L110.817 180.413V101.041Z" fill="white"/>
</mask>
<g mask="url(#mask1_349_117)">
<path d="M84.6381 98.0447V170.513L64.9636 176.513V104.044L86.0058 98.0447M87.8209 94.1445L61.7803 101.116V180.413L87.8209 173.442V94.1445Z" fill="#1C344D"/>
</g>
<mask id="mask2_349_117" style="mask-type:luminance" maskUnits="userSpaceOnUse" x="61" y="101" width="50" height="80">
<path d="M110.817 101.041H61.7803V180.338L110.817 180.413V101.041Z" fill="white"/>
</mask>
<g mask="url(#mask2_349_117)">
<path d="M62.4268 140.986C62.4268 141.882 62.8129 142.493 63.2892 142.35L86.3121 135.451C86.7884 135.308 87.1745 134.466 87.1745 133.569C87.1745 132.674 86.7884 132.063 86.3121 132.206L63.2892 139.105C62.8129 139.248 62.4268 140.09 62.4268 140.986Z" fill="#1C344D"/>
</g>
<path d="M21.9531 79.1375V95.7669C31.6529 99.8738 42.6058 99.8738 52.3055 95.7669V79.1375H21.9531Z" fill="#6FB457"/>
<path d="M113.01 79.1375V95.7669L112.654 95.9176C103.182 99.9281 92.4857 99.9281 83.0139 95.9176L82.6572 95.7669V79.1375" fill="#6FB457"/>
<path d="M173.717 79.1375V95.7669C164.017 99.8738 153.064 99.8738 143.364 95.7669V79.1375" fill="#6FB457"/>
<path d="M234.421 79.1375V95.7669C224.721 99.8738 213.768 99.8738 204.068 95.7669V79.1375" fill="#6FB457"/>
<path d="M295.126 79.1375V95.7669C285.426 99.8738 274.473 99.8738 264.773 95.7669V79.1375" fill="#6FB457"/>
<path d="M82.6581 79.1375V95.7669C72.9583 99.8738 62.0054 99.8738 52.3057 95.7669V79.1375" fill="#E9E4F2"/>
<path d="M143.363 79.1375V95.7669C134.204 99.8726 123.767 100.082 114.451 96.3446L113.011 95.7669V79.1375" fill="#E9E4F2"/>
<path d="M204.068 79.1375V95.7669C194.368 99.8738 183.416 99.8738 173.716 95.7669V79.1375" fill="#E9E4F2"/>
<path d="M264.772 79.1375V95.7669C255.073 99.8738 244.12 99.8738 234.42 95.7669V79.1375" fill="#E9E4F2"/>
<path d="M21.9531 79.1374L43.7988 47.8066H69.2968L52.3055 79.1374" fill="#9FC175"/>
<path d="M264.773 79.1374L247.782 47.8066H273.28L295.126 79.1374" fill="#9FC175"/>
<path d="M52.3057 79.1374L69.2969 47.8066H94.7949L82.6581 79.1374" fill="#F2F0F7"/>
<path d="M82.6582 79.1374L94.7951 47.8066H120.292L113.011 79.1374" fill="#9FC175"/>
<path d="M113.011 79.1374L120.293 47.8066H145.791L143.364 79.1374" fill="#F2F0F7"/>
<path d="M143.364 79.1374L145.791 47.8066H171.289L173.717 79.1374" fill="#9FC175"/>
<path d="M173.717 79.1374L171.289 47.8066H196.787L204.069 79.1374" fill="#F2F0F7"/>
<path d="M204.068 79.1374L196.786 47.8066H222.284L234.42 79.1374" fill="#9FC175"/>
<path d="M234.421 79.1374L222.285 47.8066H247.783L264.774 79.1374" fill="#F2F0F7"/>
<path d="M273.279 39.3687H43.7979V47.8066H273.279V39.3687Z" fill="#67924A"/>
<path d="M6.33664 46.3235H29.9169C33.4167 46.3235 36.2535 43.4903 36.2535 39.9951V16.4454C36.2535 12.9502 33.4167 10.1169 29.9169 10.1169H6.33664C2.83689 10.1169 0 12.9502 0 16.4454V39.9951C0 43.4903 2.83689 46.3235 6.33664 46.3235Z" fill="white"/>
<path d="M7.41382 43.7663H28.8393C31.5084 43.7663 33.6926 41.5855 33.6926 38.9193V17.5215C33.6926 14.856 31.509 12.6746 28.8393 12.6746H7.41382C4.74477 12.6746 2.56055 14.8554 2.56055 17.5215V38.9193C2.56055 41.5855 4.74477 43.7663 7.41382 43.7663Z" fill="#1C344D"/>
<path d="M273.279 9.03027H43.7979V17.4682H273.279V9.03027Z" fill="#67924A"/>
<path d="M105.107 217C115.208 217 123.396 215.055 123.396 212.655C123.396 210.255 115.208 208.31 105.107 208.31C95.0072 208.31 86.8193 210.255 86.8193 212.655C86.8193 215.055 95.0072 217 105.107 217Z" fill="#DF5719"/>
<path d="M97.3787 172.06C97.3787 172.06 97.8669 173.521 97.8374 174.104C97.8079 174.687 97.6168 175.835 97.3741 175.825C97.1315 175.816 97.1269 173.654 96.9778 173.56C96.8281 173.465 96.087 174.736 96.0575 175.031C96.0274 175.326 96.7986 177.332 96.5882 177.395C96.3779 177.459 95.6039 176.511 95.199 175.352C94.7941 174.193 95.745 172.426 95.745 172.426L97.3787 172.06Z" fill="#F26B51"/>
<path d="M94.9296 158.136C94.9296 158.136 92.9784 158.307 93.6713 162.068C94.278 165.362 95.0883 170.245 95.4575 172.246C95.5805 172.915 96.1266 173.376 96.7106 173.308C97.2947 173.239 97.7188 172.664 97.6842 171.985C97.5799 169.953 97.2731 165.014 97.0645 161.671C96.8263 157.857 94.9296 158.136 94.9296 158.136Z" fill="#F26B51"/>
<path d="M109.507 146.7C109.405 146.669 109.302 146.637 109.199 146.606C106.223 145.717 103.135 145.717 100.16 146.605C100.055 146.636 99.9509 146.667 99.8472 146.7C99.4882 146.812 99.2127 147.196 99.1418 147.683C98.6536 151.04 99.114 161.987 99.2841 165.605C99.3153 166.266 99.723 166.779 100.215 166.779H104.673H104.681H109.139C109.631 166.779 110.039 166.267 110.07 165.605C110.24 161.987 110.701 151.04 110.212 147.683C110.142 147.196 109.867 146.812 109.507 146.7Z" fill="#F26B51"/>
<path d="M97.0613 191.672C97.0608 191.648 97.0602 191.622 97.0602 191.599C96.9916 191.423 97.046 191.663 97.0613 191.672Z" fill="#9FC175"/>
<path d="M112.684 171.753C112.674 170.555 112.564 169.361 112.353 168.181C112.351 168.17 112.349 168.163 112.349 168.158C111.461 163.378 110.076 163.132 110.076 163.132H99.0194C99.0194 163.132 97.9341 163.706 97.0467 168.486L96.9316 169.369C96.736 170.872 96.626 172.383 96.6022 173.898C96.5216 178.934 96.5664 187.668 97.0614 191.671C97.1261 195.377 98.2607 209.57 98.2607 209.57H102.826C102.826 209.57 103.657 193.173 103.54 191.024C103.54 191.015 103.538 191.007 103.537 190.997C103.843 188.813 104.279 185.583 104.657 182.345C105.035 185.584 105.471 188.813 105.777 190.997C105.776 191.007 105.774 191.015 105.773 191.024C105.657 193.173 106.488 209.57 106.488 209.57H111.053C111.053 209.57 112.188 195.376 112.252 191.671C112.759 187.574 112.733 177.093 112.684 171.753Z" fill="#1C344D"/>
<path d="M107.662 141.685H103.354V146.91H107.662V141.685Z" fill="#F26B51"/>
<path d="M100.816 139.735C100.816 140.414 101.245 140.965 101.772 140.965C102.3 140.965 102.728 140.414 102.728 139.735C102.728 139.055 102.3 138.504 101.772 138.504C101.245 138.504 100.816 139.055 100.816 139.735Z" fill="#F26B51"/>
<path d="M108.303 139.735C108.303 140.414 108.731 140.965 109.259 140.965C109.787 140.965 110.215 140.414 110.215 139.735C110.215 139.055 109.787 138.504 109.259 138.504C108.731 138.504 108.303 139.055 108.303 139.735Z" fill="#F26B51"/>
<path d="M105.516 144.297C107.575 144.297 109.26 142.615 109.26 140.559V137.14C109.26 135.445 107.871 134.059 106.174 134.059H104.858C103.161 134.059 101.772 135.445 101.772 137.14V140.559C101.772 142.615 103.457 144.297 105.516 144.297Z" fill="#F26B51"/>
<path d="M100.201 147.278C100.201 147.278 97.5649 146.184 96.5131 149.857C95.5916 153.074 94.1083 157.787 93.5486 159.742C93.3615 160.395 93.8344 161.138 94.6317 161.451C95.4295 161.763 96.2823 161.539 96.5896 160.933C97.5105 159.12 99.6806 154.679 101.147 151.673C102.821 148.245 100.201 147.278 100.201 147.278Z" fill="#F26B51"/>
<path d="M106.028 149.079C106.028 149.079 107.118 151.714 110.462 149.859C113.391 148.235 117.777 145.95 119.557 144.963C120.151 144.633 120.344 143.774 120.001 142.989C119.658 142.205 118.896 141.762 118.25 141.972C116.315 142.604 111.636 144.211 108.47 145.301C104.859 146.545 106.028 149.079 106.028 149.079Z" fill="#F26B51"/>
<path d="M119.758 144.572C119.758 144.572 121.382 143.273 118.229 141.104C115.469 139.204 111.237 136.523 109.559 135.368C108.999 134.982 108.286 135.042 107.922 135.502C107.557 135.963 107.664 136.669 108.17 137.125C109.682 138.488 113.397 141.764 115.911 143.981C118.779 146.51 119.758 144.572 119.758 144.572Z" fill="#F26B51"/>
<path d="M103.352 145.713C103.352 145.713 98.6967 146.711 96.9338 147.533C95.1708 148.354 93.5225 157.158 93.5225 157.158L97.6857 159.01L95.9721 170.639C95.7623 172.061 96.7517 173.382 98.1778 173.58C101.153 173.994 106.332 174.419 111.695 173.482C112.99 173.256 113.893 172.074 113.808 170.764C113.131 160.311 111.743 151.54 111.743 151.54L116.092 149.352L114.237 143.323L107.705 145.063C107.705 145.064 105.774 146.769 103.352 145.713Z" fill="#9FC175"/>
<path d="M99.7462 209.57C99.7462 209.57 94.0781 209.574 94.0781 212.746C99.7099 212.746 102.953 212.746 102.953 212.746L102.825 209.57" fill="#1C344D"/>
<path d="M109.566 209.57C109.566 209.57 115.234 209.574 115.234 212.746C109.602 212.746 106.358 212.746 106.358 212.746L106.487 209.57" fill="#1C344D"/>
<path d="M105.319 144.743C105.319 144.743 108.049 144.874 109.27 142.078C110.491 139.281 111.066 136.497 108.844 134.277C106.622 132.058 103.507 132.833 102.387 133.951C101.267 135.07 100.255 136.616 100.761 139.577C101.267 142.539 103.244 144.743 105.319 144.743Z" fill="#1C344D"/>
<path d="M170.227 217C180.327 217 188.515 215.055 188.515 212.655C188.515 210.255 180.327 208.31 170.227 208.31C160.126 208.31 151.938 210.255 151.938 212.655C151.938 215.055 160.126 217 170.227 217Z" fill="#DF5719"/>
<path d="M172.224 176.185C173 171.39 169.61 170.344 169.61 170.344C169.61 170.344 166.138 168.326 165.129 173.049C164.355 176.672 163.659 187.762 163.339 192.277C163.248 193.55 163.949 194.735 164.979 195.053C166.009 195.372 167.052 194.725 167.423 193.538C168.737 189.33 171.63 179.863 172.224 176.185Z" fill="#F26B51"/>
<path d="M167.541 193.177C167.807 191.167 165.865 190.817 165.865 190.817C165.865 190.817 163.924 190.466 163.468 192.44C163.012 194.415 161.327 209.811 161.327 209.811L163.841 210.265C163.841 210.265 167.274 195.186 167.541 193.177Z" fill="#F26B51"/>
<path d="M161.467 209.753C161.467 209.753 157.022 211.736 156.495 211.989C155.967 212.241 155.748 212.746 157.11 212.746H162.786C163.421 212.746 163.936 212.323 163.936 211.802V209.754H161.467V209.753Z" fill="#F26B51"/>
<path d="M180.622 174.726C180.53 169.87 177.008 169.443 177.008 169.443C177.008 169.443 173.486 169.016 173.336 173.842C173.22 177.544 174.259 187.642 174.749 192.141C174.887 193.41 175.787 194.451 176.857 194.582C177.927 194.711 178.839 193.89 178.992 192.656C179.534 188.282 180.693 178.452 180.622 174.726Z" fill="#F26B51"/>
<path d="M179.044 192.28C178.947 190.255 176.974 190.255 176.974 190.255C176.974 190.255 175.001 190.255 174.904 192.28C174.808 194.304 175.896 209.754 175.896 209.754H178.451C178.451 209.754 179.14 194.304 179.044 192.28Z" fill="#F26B51"/>
<path d="M174.79 150.193C174.79 150.193 178.098 149.444 180.772 151.857C183.114 153.971 186.652 157.001 188.075 158.286C188.55 158.715 188.543 159.545 188.062 160.192C187.58 160.839 186.786 161.084 186.237 160.753C184.596 159.761 180.645 157.29 177.972 155.617C174.923 153.707 174.79 150.193 174.79 150.193Z" fill="#F26B51"/>
<path d="M177.241 150.515C177.145 150.485 177.048 150.455 176.951 150.426C174.147 149.589 171.238 149.589 168.434 150.425C168.335 150.455 168.237 150.485 168.139 150.515C167.801 150.621 167.541 150.983 167.475 151.441C167.015 154.605 167.449 164.919 167.609 168.328C167.639 168.951 168.023 169.434 168.486 169.434H172.686H172.694H176.894C177.358 169.434 177.742 168.951 177.772 168.328C177.932 164.919 178.366 154.605 177.906 151.441C177.84 150.983 177.58 150.621 177.241 150.515Z" fill="#F26B51"/>
<path d="M180.208 172.071C179.372 167.567 177.777 165.998 177.777 165.998H167.507C167.507 165.998 165.989 168.168 165.153 172.672C165.032 173.326 165.323 173.986 165.893 174.351C167.014 175.069 169.197 176.088 172.568 176.088C175.938 176.088 178.122 175.069 179.243 174.351C179.812 173.986 180.329 172.725 180.208 172.071Z" fill="#F26B51"/>
<path d="M175.501 145.79H171.441V150.712H175.501V145.79Z" fill="#F26B51"/>
<path d="M175.386 147.483C175.386 147.483 174.21 148.973 171.441 148.973C171.441 147.136 171.441 146.856 171.441 146.856L175.386 147.483Z" fill="#F26B51"/>
<path d="M169.053 143.952C169.053 144.592 169.456 145.112 169.954 145.112C170.451 145.112 170.855 144.592 170.855 143.952C170.855 143.311 170.452 142.792 169.954 142.792C169.456 142.792 169.053 143.311 169.053 143.952Z" fill="#F26B51"/>
<path d="M176.107 143.952C176.107 144.592 176.511 145.112 177.008 145.112C177.506 145.112 177.909 144.592 177.909 143.952C177.909 143.311 177.506 142.792 177.008 142.792C176.511 142.792 176.107 143.311 176.107 143.952Z" fill="#F26B51"/>
<path d="M173.48 148.251C175.42 148.251 177.007 146.666 177.007 144.729V141.508C177.007 139.911 175.699 138.604 174.1 138.604H172.86C171.261 138.604 169.953 139.911 169.953 141.508V144.729C169.953 146.666 171.54 148.251 173.48 148.251Z" fill="#F26B51"/>
<path d="M169.225 150.214C169.225 150.214 165.275 150.462 165.125 154.058C164.993 157.208 164.677 161.852 164.598 163.766C164.571 164.406 165.169 164.983 165.968 165.093C166.768 165.203 167.5 164.809 167.647 164.187C168.089 162.322 169.094 157.776 169.772 154.699C170.546 151.188 169.225 150.214 169.225 150.214Z" fill="#F26B51"/>
<path d="M166.47 162.187C166.47 162.187 164.789 161.426 163.617 164.833C162.59 167.817 161.136 172.827 160.512 174.64C160.304 175.245 160.396 175.251 160.908 175.464C161.418 175.678 162.033 175.402 162.319 174.829C163.174 173.112 165.21 168.915 166.586 166.075C168.157 162.833 166.47 162.187 166.47 162.187Z" fill="#F26B51"/>
<path d="M188.255 158.697C188.255 158.697 189.324 160.2 186.197 161.999C183.46 163.574 179.455 165.974 177.792 166.931C177.236 167.251 176.571 167.141 176.264 166.681C175.957 166.221 176.111 165.565 176.62 165.176C178.144 164.011 181.882 161.215 184.412 159.324C187.298 157.167 188.255 158.697 188.255 158.697Z" fill="#F26B51"/>
<path d="M178.284 155.811C178.284 155.811 172.701 154.295 167.272 155.617C165.549 156.837 167.022 160.9 167.022 160.9V165.998C167.022 165.998 164.483 171.29 163.01 185.184C161.538 199.079 160.776 208.816 160.776 208.816L165.55 209.754L172.568 176.088L174.529 209.425H179.26C179.26 209.425 179.859 193.755 180.626 186.452C181.393 179.15 182.408 170.988 178.296 165.434C177.837 161.35 178.284 155.811 178.284 155.811Z" fill="#1C344D"/>
<path d="M159.828 210.486C159.828 210.486 159.84 210.499 159.859 210.521C160 210.682 160.54 211.359 159.934 211.654C159.243 211.989 158.635 211.02 158.635 211.02C158.635 211.02 156.658 211.724 156.198 211.901C155.737 212.078 155.897 212.746 155.897 212.746H163.936C163.936 212.746 164.469 211.901 163.936 210.486C162.785 210.486 161.326 211.441 161.326 211.441L160.392 210.234" fill="#9FC175"/>
<path d="M175.969 209.753C175.969 209.753 171.524 211.736 170.997 211.989C170.469 212.241 170.25 212.746 171.612 212.746H177.287C177.923 212.746 178.438 212.323 178.438 211.802V209.754H175.969V209.753Z" fill="#F26B51"/>
<path d="M174.328 210.486C174.328 210.486 174.34 210.499 174.359 210.521C174.5 210.682 175.04 211.359 174.434 211.654C173.743 211.989 173.135 211.02 173.135 211.02C173.135 211.02 171.158 211.724 170.698 211.901C170.237 212.078 170.397 212.746 170.397 212.746H178.436C178.436 212.746 178.969 211.901 178.436 210.486C177.285 210.486 175.826 211.441 175.826 211.441L174.892 210.234" fill="#9FC175"/>
<path d="M169.952 143.807C169.952 143.807 168.828 142.066 169.722 140.019C170.616 137.973 169.199 137.211 171.597 135.295C173.995 133.379 180.39 137.232 177.007 143.807C176.741 141.456 174.43 143.284 172.992 139.932C170.812 139.932 169.55 141.891 169.952 143.807Z" fill="#1C344D"/>
<path d="M162.089 174.64C162.089 174.64 162.237 176.084 162.089 176.614C161.942 177.144 161.529 178.16 161.308 178.101C161.087 178.042 161.529 176.054 161.411 175.936C161.293 175.819 160.35 176.835 160.261 177.1C160.172 177.365 160.467 179.368 160.261 179.383C160.054 179.398 159.538 178.367 159.405 177.218C159.273 176.069 160.512 174.641 160.512 174.641H162.089V174.64Z" fill="#F26B51"/>
<path d="M177.65 168.105C177.487 167.982 178.347 166.707 178.347 166.707C178.347 166.707 176.802 168.197 176.637 168.057C176.472 167.918 177.929 166.356 177.929 166.356C177.929 166.356 176.046 167.755 175.911 167.584C175.776 167.414 177.482 165.991 177.482 165.991C177.482 165.991 175.583 167.168 175.503 166.942C175.423 166.716 177.732 165.008 177.732 165.008C177.732 165.008 176.22 165.619 176.067 165.487C175.96 165.396 176.308 165.195 176.834 164.844C177.27 164.552 177.717 164.332 178.076 164.179C178.512 163.992 179.017 164.091 179.355 164.424C179.774 164.837 179.822 165.495 179.467 165.964C178.783 166.869 177.758 168.186 177.65 168.105Z" fill="#F26B51"/>
<path d="M171.334 144.136H175.736L176.276 146.723C176.276 146.723 175.355 148.425 173.388 148.425C171.421 148.425 170.501 146.766 170.501 146.766L171.334 144.136Z" fill="white"/>
<path d="M169.657 142.891L171.713 144.514" stroke="white" stroke-width="0.4938" stroke-miterlimit="10"/>
<path d="M177.304 142.891L175.248 144.514" stroke="white" stroke-width="0.4938" stroke-miterlimit="10"/>
<path d="M365.586 217C375.686 217 383.874 215.055 383.874 212.655C383.874 210.255 375.686 208.31 365.586 208.31C355.486 208.31 347.298 210.255 347.298 212.655C347.298 215.055 355.486 217 365.586 217Z" fill="#DF5719"/>
<path d="M354.627 138.104C355.904 134.893 358.458 135.081 358.882 135.135C359.305 135.081 361.86 134.893 363.137 138.104C364.283 140.985 364.834 142.154 363.876 143.029C363.474 143.397 362.931 143.573 362.387 143.573H358.943C358.865 143.573 358.82 143.573 358.82 143.573H355.377C354.832 143.573 354.29 143.397 353.888 143.029C352.928 142.154 353.481 140.985 354.627 138.104Z" fill="#1C344D"/>
<path d="M360.257 174.835C359.454 169.864 362.968 168.778 362.968 168.778C362.968 168.778 366.571 166.621 367.617 171.517C368.42 175.274 369.138 186.839 369.47 191.52C369.564 192.841 368.838 194.07 367.77 194.399C366.703 194.729 365.62 194.059 365.236 192.829C363.873 188.466 360.873 178.649 360.257 174.835Z" fill="#F26B51"/>
<path d="M365.113 192.454C364.837 190.371 366.85 190.007 366.85 190.007C366.85 190.007 368.864 189.643 369.336 191.691C369.809 193.739 371.556 209.703 371.556 209.703L368.948 210.174C368.948 210.174 365.389 194.538 365.113 192.454Z" fill="#F26B51"/>
<path d="M371.41 209.643C371.41 209.643 376.019 211.699 376.565 211.961C377.112 212.223 377.34 212.746 375.927 212.746H370.043C369.384 212.746 368.85 212.308 368.85 211.767V209.643H371.41Z" fill="#F26B51"/>
<path d="M351.548 173.323C351.644 168.288 355.296 167.845 355.296 167.845C355.296 167.845 358.947 167.402 359.103 172.406C359.223 176.246 358.147 186.715 357.639 191.381C357.496 192.697 356.562 193.777 355.453 193.911C354.343 194.046 353.398 193.194 353.239 191.915C352.676 187.379 351.474 177.186 351.548 173.323Z" fill="#F26B51"/>
<path d="M353.185 191.524C353.285 189.425 355.332 189.425 355.332 189.425C355.332 189.425 357.378 189.425 357.478 191.524C357.578 193.624 356.356 209.882 356.356 209.882L353.801 209.643C353.801 209.643 353.086 193.623 353.185 191.524Z" fill="#F26B51"/>
<path d="M355.784 149.374C355.784 149.374 354.164 147.106 351.392 149.609C348.964 151.801 345.295 154.943 343.819 156.275C343.327 156.72 343.333 157.581 343.833 158.252C344.333 158.923 345.156 159.177 345.724 158.833C347.426 157.805 351.523 155.243 354.295 153.508C357.457 151.527 355.784 149.374 355.784 149.374Z" fill="#F26B51"/>
<path d="M355.055 148.218C355.155 148.187 355.255 148.156 355.356 148.126C358.264 147.258 361.28 147.258 364.188 148.125C364.29 148.155 364.392 148.186 364.493 148.218C364.844 148.327 365.113 148.702 365.182 149.178C365.659 152.458 365.209 163.153 365.043 166.689C365.012 167.335 364.614 167.835 364.133 167.835H359.778H359.769H355.414C354.933 167.835 354.535 167.334 354.505 166.689C354.338 163.153 353.888 152.458 354.365 149.178C354.434 148.703 354.704 148.327 355.055 148.218Z" fill="#F26B51"/>
<path d="M351.978 170.57C352.845 165.9 354.5 164.273 354.5 164.273H365.303C365.303 164.273 366.723 166.523 367.59 171.193C367.715 171.872 367.413 172.556 366.823 172.934C365.66 173.679 363.396 174.735 359.902 174.735C356.407 174.735 354.143 173.679 352.98 172.934C352.39 172.556 351.853 171.249 351.978 170.57Z" fill="#F26B51"/>
<path d="M356.859 148.423H361.068V143.318H356.859V148.423Z" fill="#F26B51"/>
<path d="M356.979 145.074C356.979 145.074 358.198 146.619 361.069 146.619C361.069 144.715 361.069 144.424 361.069 144.424L356.979 145.074Z" fill="#F26B51"/>
<path d="M362.612 142.615C363.127 142.615 363.546 142.077 363.546 141.413C363.546 140.749 363.127 140.21 362.612 140.21C362.096 140.21 361.678 140.749 361.678 141.413C361.678 142.077 362.096 142.615 362.612 142.615Z" fill="#F26B51"/>
<path d="M355.296 142.615C355.812 142.615 356.23 142.077 356.23 141.413C356.23 140.749 355.812 140.21 355.296 140.21C354.78 140.21 354.362 140.749 354.362 141.413C354.362 142.077 354.78 142.615 355.296 142.615Z" fill="#F26B51"/>
<path d="M358.954 145.871C356.942 145.871 355.297 144.227 355.297 142.218V138.878C355.297 137.222 356.654 135.867 358.312 135.867H359.597C361.255 135.867 362.612 137.222 362.612 138.878V142.218C362.612 144.227 360.966 145.871 358.954 145.871Z" fill="#F26B51"/>
<path d="M363.345 147.989C363.345 147.989 365.984 147.089 366.777 150.736C367.471 153.931 368.619 158.619 369.04 160.561C369.181 161.209 368.674 161.904 367.876 162.159C367.079 162.413 366.261 162.14 366 161.531C365.217 159.705 363.383 155.238 362.143 152.214C360.729 148.765 363.345 147.989 363.345 147.989Z" fill="#F26B51"/>
<path d="M365.223 161.435C365.223 161.435 368.241 168.715 368.905 178.193C363.21 179.299 360.138 179.141 360.138 179.141L359.636 175.161L359.257 179.149C359.257 179.149 354.733 179.805 351.316 178.762C351.063 171.875 351.185 165.704 354.308 161.905C361.639 162.401 365.223 161.435 365.223 161.435Z" fill="#1C344D"/>
<path d="M361.068 147.475L364.439 147.921C364.439 147.921 365.981 152.389 365.981 155.921C365.981 159.453 365.223 161.435 365.223 161.435C365.223 161.435 361.221 163.383 354.308 161.904C353.314 155.2 353.965 148.434 353.965 148.434L356.859 147.686C356.859 147.686 358.899 148.832 361.068 147.475Z" fill="#9FC175"/>
<path d="M369.021 160.383C369.021 160.383 369.651 162.188 366.121 163.051C363.029 163.807 358.48 165.008 356.601 165.466C355.974 165.62 355.356 165.315 355.183 164.768C355.009 164.221 355.338 163.617 355.939 163.381C357.739 162.675 362.135 161.003 365.111 159.874C368.506 158.584 369.021 160.383 369.021 160.383Z" fill="#F26B51"/>
<path d="M343.634 156.702C343.634 156.702 342.526 158.261 345.767 160.126C348.606 161.759 351.394 163.454 353.118 164.447C353.695 164.778 354.384 164.664 354.703 164.187L354.756 164.103C355.074 163.626 354.914 162.946 354.386 162.543C352.806 161.335 350.242 159.313 347.619 157.353C344.626 155.115 343.634 156.702 343.634 156.702Z" fill="#F26B51"/>
<path d="M368.85 210.912H371.407L371.984 209.899L373.353 210.368C378.054 210.61 377.151 212.745 377.151 212.745C377.151 212.745 374.071 212.745 368.85 212.745C368.539 211.898 368.85 210.912 368.85 210.912Z" fill="#1C344D"/>
<path d="M356.334 209.643C356.334 209.643 360.942 211.699 361.489 211.961C362.036 212.223 362.264 212.746 360.851 212.746H354.966C354.308 212.746 353.773 212.308 353.773 211.767V209.643H356.334Z" fill="#F26B51"/>
<path d="M353.774 210.912H356.331L356.908 209.899L358.277 210.368C362.977 210.61 362.075 212.745 362.075 212.745C362.075 212.745 358.994 212.745 353.774 212.745C353.463 211.898 353.774 210.912 353.774 210.912Z" fill="#1C344D"/>
<path d="M355.361 166.79C355.525 166.657 354.586 165.368 354.586 165.368C354.586 165.368 356.243 166.854 356.409 166.703C356.575 166.552 355.007 164.988 355.007 164.988C355.007 164.988 357.011 166.368 357.144 166.186C357.277 166.004 355.456 164.594 355.456 164.594C355.456 164.594 357.468 165.742 357.542 165.505C357.616 165.267 355.16 163.585 355.16 163.585C355.16 163.585 356.75 164.162 356.904 164.019C357.011 163.92 356.643 163.726 356.084 163.38C355.057 162.746 353.987 162.478 353.987 162.478L352.729 163.809C352.729 163.809 355.196 166.923 355.361 166.79Z" fill="#F26B51"/>
<path d="M354.616 166.58C354.519 166.391 355.902 165.594 355.902 165.594C355.902 165.594 353.783 166.28 353.693 166.075C353.603 165.87 355.672 165.076 355.672 165.076C355.672 165.076 353.28 165.525 353.232 165.305C353.183 165.085 355.421 164.534 355.421 164.534C355.421 164.534 353.116 164.768 353.145 164.521C353.173 164.274 356.102 163.731 356.102 163.731C356.102 163.731 354.414 163.615 354.332 163.422C354.274 163.287 354.689 163.259 355.34 163.17C356.536 163.007 357.624 163.196 357.624 163.196L358.233 164.921C358.233 164.921 354.712 166.768 354.616 166.58Z" fill="#F26B51"/>
<path d="M361.068 141.602H356.503L355.943 144.285C355.943 144.285 356.898 146.051 358.937 146.051C360.977 146.051 361.931 144.33 361.931 144.33L361.068 141.602Z" fill="white"/>
<path d="M362.806 140.312L360.674 141.995" stroke="white" stroke-width="0.5121" stroke-miterlimit="10"/>
<path d="M354.877 140.312L357.009 141.995" stroke="white" stroke-width="0.5121" stroke-miterlimit="10"/>
<path d="M363.416 140.432C363.416 140.432 359.894 141.115 356.978 136.635C356.442 139.695 355.198 140.705 354.151 140.705C354.151 138.438 356.188 135.406 358.954 135.406C361.72 135.406 362.841 137.318 363.416 140.432Z" fill="#1C344D"/>
<path d="M300.467 217C310.567 217 318.755 215.055 318.755 212.655C318.755 210.255 310.567 208.31 300.467 208.31C290.367 208.31 282.179 210.255 282.179 212.655C282.179 215.055 290.367 217 300.467 217Z" fill="#DF5719"/>
<path d="M292.803 144.063C295.629 142.141 293.121 139.598 294.558 136.282C295.915 133.149 298.392 133.384 298.664 133.42C298.935 133.384 301.412 133.149 302.769 136.282C304.206 139.598 301.697 142.141 304.524 144.063C307.342 145.979 304.009 148.929 298.689 148.948V148.949C298.681 148.949 298.672 148.949 298.664 148.949C298.655 148.949 298.647 148.949 298.638 148.949V148.948C293.319 148.929 289.986 145.979 292.803 144.063Z" fill="#1C344D"/>
<path d="M304.904 209.57C304.904 209.57 309.485 211.675 310.045 211.943C310.604 212.21 310.837 212.746 309.392 212.746H303.369C302.695 212.746 302.147 212.298 302.147 211.744L302.193 209.57H304.904Z" fill="#F26B51"/>
<path d="M294.024 146.173C294.024 146.173 291.856 146.605 291.045 149.544C290.906 152.887 290.53 158.037 290.445 160.069C290.417 160.747 291.091 161.138 291.94 161.255C292.789 161.372 293.565 160.954 293.722 160.293C294.19 158.315 295.257 153.49 295.977 150.224C296.798 146.498 294.024 146.173 294.024 146.173Z" fill="#F26B51"/>
<path d="M294.696 146.7C294.799 146.669 294.902 146.637 295.005 146.606C297.981 145.717 301.068 145.717 304.044 146.605C304.148 146.636 304.253 146.667 304.357 146.7C304.715 146.812 304.991 147.196 305.062 147.683C305.55 151.04 305.09 161.987 304.92 165.605C304.888 166.266 304.481 166.779 303.989 166.779H299.531H299.523H295.065C294.573 166.779 294.165 166.267 294.134 165.605C293.964 161.987 293.503 151.04 293.992 147.683C294.062 147.196 294.338 146.812 294.696 146.7Z" fill="#F26B51"/>
<path d="M292.611 190.998C292.219 187.82 291.852 184.638 291.534 181.452C291.235 178.448 290.761 175.297 290.94 172.273C291.07 170.078 291.827 167.687 292.661 165.661C292.791 165.347 293.632 163.132 294.129 163.132C294.129 163.132 305.025 163.132 305.028 163.132C305.399 163.132 306.211 165.518 306.308 165.773C307.624 169.237 307.699 172.555 307.469 176.185C307.253 179.607 306.931 183.022 306.588 186.433C306.439 187.915 306.284 189.397 306.123 190.878C306.096 191.128 306.04 191.369 305.961 191.599C305.916 195.188 304.904 209.57 304.904 209.57H302.193C302.193 209.57 301.461 193.174 301.563 191.025C301.564 191.015 301.565 191.007 301.566 190.998C301.035 186.691 300.058 178.316 299.906 173.836C299.822 173.837 299.741 173.841 299.656 173.841C299.304 173.841 298.966 173.828 298.637 173.808C298.451 178.658 297.603 186.865 297.166 190.878C297.139 191.129 297.084 191.37 297.005 191.599C296.96 195.188 295.948 209.57 295.948 209.57H293.236C293.236 209.57 292.505 193.174 292.607 191.025C292.609 191.015 292.611 191.007 292.611 190.998Z" fill="#1C344D"/>
<path d="M304.577 146.172C304.577 146.172 307.396 145.727 307.555 149.544C307.695 152.887 308.07 158.078 308.155 160.109C308.184 160.788 307.509 161.138 306.661 161.254C305.812 161.371 305.035 160.953 304.879 160.293C304.41 158.315 303.343 153.489 302.624 150.223C301.802 146.498 304.577 146.172 304.577 146.172Z" fill="#F26B51"/>
<path d="M299.527 145.566L305.28 146.194L305.029 163.133C301.404 164.262 297.771 164.257 294.129 163.133L293.773 146.157L299.527 145.566Z" fill="#9FC175"/>
<path d="M308.11 160.386C308.11 160.386 307.545 162.259 303.999 160.816C300.894 159.552 296.272 157.766 294.385 156.997C293.755 156.741 293.413 156.113 293.599 155.556C293.785 154.999 294.435 154.701 295.094 154.874C297.065 155.39 301.845 156.695 305.08 157.579C308.77 158.588 308.11 160.386 308.11 160.386Z" fill="#F26B51"/>
<path d="M290.491 160.386C290.491 160.386 291.056 162.259 294.602 160.816C297.707 159.552 302.329 157.766 304.216 156.997C304.846 156.741 305.188 156.113 305.002 155.556C304.816 154.999 304.166 154.701 303.507 154.874C301.536 155.39 296.756 156.695 293.521 157.579C289.831 158.588 290.491 160.386 290.491 160.386Z" fill="#F26B51"/>
<path d="M299.536 148.146C298.346 148.146 297.382 147.183 297.382 145.995V141.981H301.69V145.995C301.69 147.184 300.726 148.146 299.536 148.146Z" fill="#F26B51"/>
<path d="M297.965 143.41C297.965 143.41 298.752 145.269 301.69 145.269C301.69 143.32 301.69 142.818 301.69 142.818L297.965 143.41Z" fill="#F26B51"/>
<path d="M305.281 146.193C305.281 146.193 308.156 146.021 308.156 151.461C306.45 151.461 305.053 151.461 305.053 151.461L305.281 146.193Z" fill="#9FC175"/>
<path d="M293.773 146.193C293.773 146.193 290.897 146.021 290.897 151.461C292.603 151.461 294.046 151.461 294.046 151.461L293.773 146.193Z" fill="#9FC175"/>
<path d="M306.866 210.473L305.765 212.273H302.087C301.956 212.273 301.85 212.379 301.85 212.51C301.85 212.641 301.956 212.747 302.087 212.747H310.538C310.669 212.747 310.775 212.641 310.775 212.51V212.488C310.775 212.357 310.669 212.251 310.538 212.251H308.566L309.014 211.463L306.762 210.473" fill="#9FC175"/>
<path d="M295.979 209.57C295.979 209.57 300.559 211.675 301.118 211.943C301.678 212.21 301.911 212.746 300.466 212.746H294.442C293.768 212.746 293.221 212.298 293.221 211.744L293.267 209.57H295.979Z" fill="#F26B51"/>
<path d="M297.941 210.473L296.84 212.273H293.162C293.031 212.273 292.925 212.379 292.925 212.51C292.925 212.641 293.031 212.747 293.162 212.747H301.614C301.745 212.747 301.851 212.641 301.851 212.51V212.488C301.851 212.357 301.745 212.251 301.614 212.251H299.641L300.089 211.463L297.838 210.473" fill="#9FC175"/>
<path d="M290.697 156.455C290.713 156.239 292.346 156.272 292.346 156.272C292.346 156.272 290.126 155.752 290.157 155.525C290.186 155.297 292.419 155.696 292.419 155.696C292.419 155.696 290.086 154.824 290.161 154.606C290.236 154.388 292.488 155.089 292.488 155.089C292.488 155.089 290.345 154.074 290.501 153.873C290.657 153.672 293.509 154.747 293.509 154.747C293.509 154.747 292.094 153.752 292.124 153.539C292.144 153.391 292.523 153.586 293.14 153.852C294.274 154.342 295.127 155.083 295.127 155.083L294.744 156.917C294.744 156.916 290.681 156.67 290.697 156.455Z" fill="#F26B51"/>
<path d="M307.615 156.455C307.599 156.239 305.966 156.272 305.966 156.272C305.966 156.272 308.186 155.752 308.156 155.525C308.126 155.297 305.893 155.696 305.893 155.696C305.893 155.696 308.226 154.824 308.151 154.606C308.076 154.388 305.825 155.089 305.825 155.089C305.825 155.089 307.967 154.074 307.811 153.873C307.655 153.672 304.803 154.747 304.803 154.747C304.803 154.747 306.219 153.752 306.189 153.539C306.168 153.391 305.789 153.586 305.172 153.852C304.038 154.342 303.186 155.083 303.186 155.083L303.568 156.917C303.568 156.916 307.631 156.67 307.615 156.455Z" fill="#F26B51"/>
<path d="M298.549 134.682C300.878 134.682 302.784 136.585 302.784 138.911V142.428C302.784 143.677 301.669 144.661 300.436 144.455C297.69 143.997 295.58 141.598 295.58 138.732V137.647C295.58 136.016 296.916 134.682 298.549 134.682Z" fill="#F26B51"/>
<path d="M302.783 139.608C302.783 139.608 304.652 141.976 302.783 141.976V139.608Z" fill="#F26B51"/>
<path d="M299.748 133.995C300.407 134.18 302.1 134.805 302.844 136.483C302.844 136.483 301.687 136.368 300.574 135.797C300.527 136.947 300.06 138.841 297.748 140.214C296.64 141.986 297.382 143.606 297.382 143.606C297.382 143.606 294.916 143.342 294.916 138.595C294.916 134.566 298.037 132.981 299.748 133.995Z" fill="#1C344D"/>
<path d="M297.966 139.065L299.7 140.243" stroke="white" stroke-width="0.5241" stroke-miterlimit="10"/>
<path d="M297.058 140.954L299.183 143.153" stroke="white" stroke-width="0.5241" stroke-miterlimit="10"/>
<path d="M299.428 140.029H303.081C303.081 140.029 303.615 140.657 303.615 141.505C303.615 142.352 302.51 144.157 301.392 144.482C300.275 144.808 298.815 143.929 298.815 143.929L299.428 140.029Z" fill="white"/>
<path d="M298.817 139.806C299.107 140.566 298.863 141.365 298.273 141.589C297.682 141.813 296.968 141.379 296.679 140.619C296.389 139.859 296.633 139.061 297.224 138.836C297.814 138.612 298.528 139.046 298.817 139.806Z" fill="#F26B51"/>
<path d="M235.348 217C245.448 217 253.636 215.055 253.636 212.655C253.636 210.255 245.448 208.31 235.348 208.31C225.247 208.31 217.06 210.255 217.06 212.655C217.06 215.055 225.247 217 235.348 217Z" fill="#DF5719"/>
<path d="M224.338 172.249C224.338 172.249 223.857 173.836 223.701 174.399C223.544 174.962 223.106 176.04 222.871 175.978C222.636 175.915 223.106 173.805 222.98 173.68C222.855 173.555 221.854 174.634 221.76 174.915C221.665 175.196 221.978 177.322 221.76 177.337C221.541 177.353 220.993 176.259 220.852 175.04C220.711 173.821 222.471 171.357 222.471 171.357L224.338 172.249Z" fill="#F26B51"/>
<path d="M234.992 172.396C234.894 167.243 231.157 166.789 231.157 166.789C231.157 166.789 227.419 166.336 227.259 171.457C227.137 175.387 228.239 186.103 228.758 190.878C228.905 192.225 229.86 193.331 230.996 193.468C232.132 193.606 233.099 192.734 233.262 191.425C233.838 186.782 235.068 176.349 234.992 172.396Z" fill="#F26B51"/>
<path d="M243.806 172.396C243.707 167.243 239.97 166.789 239.97 166.789C239.97 166.789 236.233 166.336 236.073 171.457C235.95 175.387 237.052 186.103 237.572 190.878C237.718 192.225 238.674 193.331 239.81 193.468C240.945 193.606 241.913 192.734 242.076 191.425C242.652 186.782 243.881 176.349 243.806 172.396Z" fill="#F26B51"/>
<path d="M233.318 191.026C233.216 188.877 231.121 188.877 231.121 188.877C231.121 188.877 229.027 188.877 228.924 191.026C228.822 193.174 229.977 209.571 229.977 209.571H232.688C232.688 209.571 233.42 193.173 233.318 191.026Z" fill="#F26B51"/>
<path d="M230.069 209.57C230.069 209.57 225.351 211.675 224.792 211.943C224.233 212.21 224 212.746 225.445 212.746H231.468C232.142 212.746 232.69 212.298 232.69 211.744V209.57H230.069Z" fill="#F26B51"/>
<path d="M241.785 189.564C241.093 187.528 239.08 188.105 239.08 188.105C239.08 188.105 237.067 188.683 237.563 190.776C238.059 192.869 243.702 208.31 243.702 208.31L246.308 207.563C246.308 207.563 242.478 191.601 241.785 189.564Z" fill="#F26B51"/>
<path d="M240.858 147.09C240.858 147.09 243.677 146.645 243.837 150.461C243.977 153.804 244.311 158.733 244.396 160.765C244.425 161.443 243.791 162.055 242.942 162.173C242.093 162.29 241.317 161.871 241.16 161.211C240.691 159.233 239.625 154.407 238.905 151.142C238.083 147.415 240.858 147.09 240.858 147.09Z" fill="#F26B51"/>
<path d="M240.185 146.7C240.082 146.669 239.979 146.637 239.876 146.606C236.9 145.717 233.812 145.717 230.836 146.605C230.732 146.636 230.628 146.667 230.524 146.7C230.165 146.812 229.889 147.196 229.819 147.683C229.33 151.04 229.791 161.987 229.961 165.605C229.992 166.266 230.4 166.779 230.892 166.779H235.349H235.358H239.815C240.308 166.779 240.715 166.267 240.746 165.605C240.917 161.987 241.378 151.04 240.889 147.683C240.819 147.196 240.543 146.812 240.185 146.7Z" fill="#F26B51"/>
<path d="M243.333 169.578C242.446 164.798 240.752 163.132 240.752 163.132H229.853C229.853 163.132 228.242 165.435 227.355 170.215C227.226 170.909 227.536 171.61 228.14 171.996C229.329 172.759 231.647 173.84 235.224 173.84C238.801 173.84 241.118 172.759 242.308 171.996C242.912 171.61 243.462 170.272 243.333 169.578Z" fill="#F26B51"/>
<path d="M237.499 141.685H233.19V146.91H237.499V141.685Z" fill="#F26B51"/>
<path d="M237.377 143.483C237.377 143.483 236.129 145.064 233.191 145.064C233.191 143.115 233.191 142.818 233.191 142.818L237.377 143.483Z" fill="#F26B51"/>
<path d="M230.304 147.09C230.304 147.09 227.485 146.645 227.325 150.461C227.186 153.804 226.851 158.733 226.766 160.765C226.737 161.443 227.371 162.055 228.22 162.173C229.069 162.29 229.845 161.871 230.002 161.211C230.471 159.233 231.537 154.407 232.257 151.142C233.078 147.415 230.304 147.09 230.304 147.09Z" fill="#F26B51"/>
<path d="M228.754 159.088C228.754 159.088 226.97 158.28 225.726 161.897C224.636 165.063 222.942 169.716 222.28 171.64C222.059 172.283 222.308 172.953 222.85 173.18C223.392 173.406 224.044 173.113 224.347 172.505C225.255 170.683 227.415 166.229 228.877 163.214C230.544 159.774 228.754 159.088 228.754 159.088Z" fill="#F26B51"/>
<path d="M243.352 189.941C243.352 188.717 247.83 168.593 240.88 162.533H229.829C229.829 162.533 226.765 166.684 226.765 176.359C226.765 186.035 227.326 208.825 227.326 208.825H234.013L235.648 173.835C235.648 173.835 236.231 186.152 236.756 190.523C237.281 194.895 241.574 208.31 241.574 208.31L247.495 206.727C247.495 206.727 243.352 191.165 243.352 189.941Z" fill="#9FC175"/>
<path d="M233.19 145.566C233.19 145.566 228.768 145.94 227.326 148.033C226.17 149.711 226.294 158.408 225.893 159.749C225.492 161.089 220.57 170.317 222.279 171.641C223.989 172.964 224.917 173.422 225.375 172.964C225.834 172.506 227.01 169.541 227.01 169.541C227.01 169.541 235.064 170.591 240.054 170.591C245.044 170.591 245.861 167.973 245.452 166.134C245.044 164.296 244.956 156.019 244.396 151.822C243.836 147.625 243.902 147.121 237.499 145.566C235.005 146.401 233.19 145.566 233.19 145.566Z" fill="#1C344D"/>
<path d="M244.39 161.303C244.39 161.303 243.825 163.177 240.28 161.733C237.175 160.469 232.552 158.683 230.665 157.915C230.035 157.658 229.694 157.03 229.88 156.473C230.066 155.916 230.716 155.619 231.374 155.791C233.345 156.307 238.125 157.612 241.36 158.496C245.05 159.505 244.39 161.303 244.39 161.303Z" fill="#F26B51"/>
<path d="M231.438 159.384C230.759 159.006 230.414 158.221 230.603 157.468C230.814 156.627 231.15 155.604 231.611 155.143C232.462 154.293 240.053 157.183 240.053 157.183C240.053 157.183 239.738 149.75 241.573 146.91C244.284 147.683 244.343 148.965 245.043 155.377C245.743 161.788 244.465 163.653 241.573 163.653C239.33 163.653 233.802 160.705 231.438 159.384Z" fill="#1C344D"/>
<path d="M229.959 209.319C229.959 209.319 226.267 210.453 224.812 210.93C223.357 211.407 224.062 212.746 224.062 212.746H232.69V209.57C232.69 209.57 231.468 210.182 229.959 209.319Z" fill="#1C344D"/>
<path d="M243.782 208.062C243.782 208.062 239.798 211.347 239.331 211.754C238.863 212.162 238.782 212.74 240.175 212.355L245.979 210.749C246.629 210.569 247.036 209.991 246.888 209.458L246.307 207.363L243.782 208.062Z" fill="#F26B51"/>
<path d="M243.607 207.849C243.607 207.849 240.353 209.926 239.078 210.774C237.803 211.621 238.84 212.724 238.84 212.724L247.155 210.424L246.306 207.363C246.306 207.363 245.292 208.279 243.607 207.849Z" fill="#1C344D"/>
<path d="M227.102 157.316C227.118 157.1 228.751 157.133 228.751 157.133C228.751 157.133 226.532 156.613 226.562 156.386C226.591 156.158 228.824 156.557 228.824 156.557C228.824 156.557 226.492 155.685 226.566 155.467C226.641 155.249 228.893 155.95 228.893 155.95C228.893 155.95 226.75 154.936 226.906 154.735C227.062 154.533 229.915 155.608 229.915 155.608C229.915 155.608 228.499 154.613 228.529 154.4C228.549 154.252 228.929 154.447 229.546 154.713C230.68 155.203 231.532 155.944 231.532 155.944L231.15 157.777C231.15 157.777 227.086 157.531 227.102 157.316Z" fill="#F26B51"/>
<path d="M233.43 144.534H234.543C237.252 144.534 239.468 142.321 239.468 139.616V137.377C239.468 135.682 238.079 134.295 236.382 134.295H235.066C233.369 134.295 231.98 135.682 231.98 137.377V143.086C231.981 143.882 232.633 144.534 233.43 144.534Z" fill="#F26B51"/>
<path d="M231.981 139.414C231.981 139.414 230.039 141.875 231.981 141.875V139.414Z" fill="#F26B51"/>
<path d="M236.3 139.971C236.3 139.971 235.018 138.558 235.32 135.695C232.831 135.695 232.169 136.334 232.169 136.334C232.169 136.334 230.643 135.017 232.605 133.398C234.566 131.779 239.544 132.193 240.26 135.432C240.977 138.671 240.566 142.005 237.433 143.591C237.695 141.194 236.3 139.971 236.3 139.971Z" fill="#1C344D"/>
<path d="M236.63 139.186L234.896 140.363" stroke="white" stroke-width="0.5241" stroke-miterlimit="10"/>
<path d="M237.54 141.075L235.414 143.274" stroke="white" stroke-width="0.5241" stroke-miterlimit="10"/>
<path d="M235.168 140.149H231.516C231.516 140.149 230.981 140.777 230.981 141.625C230.981 142.473 232.087 144.277 233.205 144.603C234.322 144.928 235.902 144.342 235.902 144.342L235.168 140.149Z" fill="white"/>
<path d="M235.778 139.927C235.489 140.687 235.732 141.485 236.323 141.71C236.913 141.934 237.627 141.499 237.917 140.739C238.206 139.979 237.963 139.181 237.372 138.957C236.781 138.732 236.068 139.167 235.778 139.927Z" fill="#F26B51"/>
</svg>
