<svg width="139" height="54" viewBox="0 0 139 54" fill="none" xmlns="http://www.w3.org/2000/svg">
<path d="M0.000158095 45.9998L8.99877 53.2357L10.7659 41.8247L0.000158095 45.9998ZM131.215 1.61979C134.915 6.30165 136.569 10.5241 136.663 14.3048C136.757 18.0681 135.309 21.5339 132.526 24.7277C126.908 31.1758 115.98 36.3574 102.174 40.1792C74.6311 47.8036 36.4175 49.8111 9.01982 46.3852L8.77165 48.3697C36.4024 51.8248 74.8839 49.8088 102.708 42.1067C116.585 38.2653 128.008 32.9579 134.034 26.0416C137.074 22.5531 138.771 18.6178 138.663 14.2549C138.554 9.90941 136.657 5.28061 132.785 0.379868L131.215 1.61979Z" fill="white"/>
</svg>
