<svg width="1440" height="4545" viewBox="0 0 1440 4545" fill="none" xmlns="http://www.w3.org/2000/svg">
<rect width="1440" height="3380" fill="url(#paint0_linear_469_75)"/>
<rect y="3379" width="1440" height="1166" fill="#70B558"/>
<path d="M518.5 2294.5C353.957 2113.4 -91.9746 2344.09 -203.475 2415.09C-239.808 2569.75 -126.2 2967.5 -39 3029.5C70 3107 518.5 3297.5 439 2941C359.5 2584.5 762 2562.5 518.5 2294.5Z" fill="#376926" fill-opacity="0.4"/>
<path d="M1462 3033C1385.57 3265.44 1689.26 3078.14 1804 3012.5C1847.62 2859.73 1663.06 2418.48 1578.89 2352.42C1473.69 2269.84 838.038 2149.13 871.5 2404C904.962 2658.87 1578.89 2677.5 1462 3033Z" fill="#376826" fill-opacity="0.4"/>
<path d="M1151.5 699.5C846.3 740.3 220.333 512.5 -54.5 393.5V-67C350.667 -91 1152.7 -131.6 1119.5 -102C1078 -65 1240 79 1280 165.5C1312 234.7 1533 199.5 1552.5 270C1575 478.5 1456.7 658.7 1151.5 699.5Z" fill="#25321A"/>
<defs>
<linearGradient id="paint0_linear_469_75" x1="720" y1="239.307" x2="720" y2="3380" gradientUnits="userSpaceOnUse">
<stop stop-color="#25321A"/>
<stop offset="0.705" stop-color="#386B26"/>
<stop offset="1" stop-color="#71B659"/>
</linearGradient>
</defs>
</svg>
