<?xml version="1.0" encoding="utf-8"?>
<!-- Generator: Adobe Illustrator 28.2.0, SVG Export Plug-In . SVG Version: 6.00 Build 0)  -->
<svg version="1.1" xmlns="http://www.w3.org/2000/svg" xmlns:xlink="http://www.w3.org/1999/xlink" x="0px" y="0px"
	 viewBox="0 0 750 500" style="enable-background:new 0 0 750 500;" xml:space="preserve">
<style type="text/css">
	.st0{fill:#70A331;}
	.st1{fill:#9FC175;}
</style>
<g id="BACKGROUND">
</g>
<g id="OBJECTS">
	<g>
		<path class="st0" d="M385.13,390.8h-1.59c-0.99,0-1.79-0.8-1.79-1.79v-93.22h5.17V389C386.93,389.99,386.12,390.8,385.13,390.8z"
			/>
		<g>
			<g>
				<g>
					<path class="st0" d="M241.86,232.38l142.48,63.4l-25.35-0.37c-0.33,0-0.53-0.38-0.34-0.66l0.72-1.05
						c0.2-0.29-0.03-0.68-0.38-0.65l-8.47,0.58c-0.32,0.02-0.54-0.3-0.41-0.59l0.61-1.38c0.12-0.28-0.09-0.6-0.39-0.59l-10.23,0.25
						c-0.31,0.01-0.52-0.31-0.39-0.59l0.73-1.64c0.13-0.28-0.09-0.6-0.4-0.59c-1.9,0.07-7.47,0.17-11.78-0.86
						c-0.34-0.08-0.44-0.51-0.17-0.73l1.32-1.09c0.28-0.23,0.15-0.69-0.21-0.74l-9.19-1.24c-0.36-0.05-0.49-0.49-0.22-0.73
						l1.43-1.26c0.27-0.24,0.14-0.68-0.22-0.73l-10.6-1.53c-0.35-0.05-0.48-0.48-0.23-0.72l1.2-1.13c0.26-0.24,0.12-0.67-0.23-0.72
						l-9.32-1.26c-0.35-0.05-0.49-0.48-0.23-0.72l1.33-1.26c0.23-0.21,0.15-0.59-0.15-0.7l-8.47-3.06c-0.38-0.14-0.37-0.68,0.02-0.8
						l1.57-0.47c0.41-0.12,0.4-0.7-0.02-0.81l-8.26-2.14c-0.37-0.1-0.43-0.6-0.09-0.78l2.94-1.57c0.34-0.18,0.27-0.69-0.1-0.78
						l-10.23-2.37c-0.43-0.1-0.44-0.7-0.01-0.81l1.11-0.3c0.38-0.1,0.42-0.63,0.06-0.79l-7.56-3.36c-0.34-0.15-0.33-0.63,0.01-0.77
						l1.59-0.64c0.35-0.14,0.35-0.64,0-0.78l-10.61-4.23c-0.32-0.13-0.36-0.57-0.06-0.75l1.72-1.01c0.28-0.16,0.27-0.57-0.01-0.73
						L241.86,232.38z"/>
					<path class="st1" d="M241.86,232.38l142.48,63.4l-17.28-18.62c-0.22-0.23-0.61-0.13-0.68,0.18l-0.32,1.31
						c-0.08,0.32-0.5,0.41-0.7,0.15l-5.17-6.97c-0.19-0.24-0.56-0.19-0.68,0.08l-0.64,1.44c-0.12,0.27-0.48,0.32-0.67,0.1
						l-5.29-9.92c-0.19-0.22-0.55-0.17-0.67,0.1l-2.28,4.03c-0.12,0.27-0.48,0.32-0.67,0.09c-1.21-1.44-4.9-5.69-8.58-8.22
						c-0.27-0.19-0.64,0.02-0.63,0.35l0.08,1.8c0.02,0.35-0.39,0.55-0.66,0.32l-7.06-5.76c-0.26-0.22-0.66-0.03-0.66,0.31
						l-0.05,1.69c0.01,0.34-0.39,0.53-0.66,0.31l-8.3-6.9c-0.26-0.21-0.65-0.04-0.66,0.3l-0.04,1.73c-0.01,0.34-0.4,0.51-0.66,0.3
						l-7.24-6.13c-0.26-0.22-0.65-0.04-0.66,0.3l-0.04,1.91c-0.01,0.3-0.32,0.48-0.59,0.34l-8.03-4.28
						c-0.34-0.18-0.71,0.18-0.55,0.52l0.76,1.6c0.17,0.37-0.24,0.73-0.58,0.51l-7.23-4.77c-0.3-0.2-0.7,0.08-0.61,0.43l0.83,3.33
						c0.09,0.36-0.31,0.64-0.62,0.42l-8.71-6.09c-0.34-0.24-0.77,0.14-0.58,0.51l0.59,1.14c0.17,0.34-0.17,0.7-0.52,0.55l-7.65-3.4
						c-0.32-0.14-0.66,0.17-0.54,0.5l0.62,1.7c0.12,0.34-0.23,0.66-0.55,0.5l-10.33-5.09c-0.3-0.15-0.64,0.11-0.57,0.44l0.42,2.03
						c0.06,0.3-0.23,0.56-0.52,0.46L241.86,232.38z"/>
				</g>
				<g>
					<path class="st0" d="M526.81,232.38l-142.48,63.4l25.35-0.37c0.33,0,0.53-0.38,0.34-0.66l-0.72-1.05
						c-0.2-0.29,0.03-0.68,0.38-0.65l8.47,0.58c0.32,0.02,0.54-0.3,0.41-0.59l-0.61-1.38c-0.12-0.28,0.09-0.6,0.39-0.59l10.23,0.25
						c0.31,0.01,0.52-0.31,0.39-0.59l-0.73-1.64c-0.13-0.28,0.09-0.6,0.4-0.59c1.9,0.07,7.47,0.17,11.78-0.86
						c0.34-0.08,0.44-0.51,0.17-0.73l-1.32-1.09c-0.28-0.23-0.15-0.69,0.21-0.74l9.19-1.24c0.36-0.05,0.49-0.49,0.22-0.73
						l-1.43-1.26c-0.27-0.24-0.14-0.68,0.22-0.73l10.6-1.53c0.35-0.05,0.48-0.48,0.23-0.72l-1.2-1.13
						c-0.26-0.24-0.12-0.67,0.23-0.72l9.32-1.26c0.35-0.05,0.49-0.48,0.23-0.72l-1.33-1.26c-0.23-0.21-0.15-0.59,0.15-0.7l8.47-3.06
						c0.38-0.14,0.37-0.68-0.02-0.8l-1.57-0.47c-0.41-0.12-0.4-0.7,0.01-0.81l8.26-2.14c0.37-0.1,0.43-0.6,0.09-0.78l-2.94-1.57
						c-0.34-0.18-0.27-0.69,0.1-0.78l10.23-2.37c0.43-0.1,0.44-0.7,0.01-0.81l-1.11-0.3c-0.38-0.1-0.42-0.63-0.06-0.79l7.56-3.36
						c0.34-0.15,0.33-0.63-0.01-0.77l-1.59-0.64c-0.35-0.14-0.35-0.64,0-0.78l10.61-4.23c0.32-0.13,0.36-0.57,0.06-0.75l-1.72-1.01
						c-0.28-0.16-0.27-0.57,0.01-0.73L526.81,232.38z"/>
					<path class="st1" d="M526.81,232.38l-142.48,63.4l17.28-18.62c0.22-0.23,0.61-0.13,0.68,0.18l0.32,1.31
						c0.08,0.32,0.5,0.41,0.7,0.15l5.17-6.97c0.19-0.24,0.56-0.19,0.68,0.08l0.64,1.44c0.12,0.27,0.48,0.32,0.67,0.1l5.29-9.92
						c0.19-0.22,0.55-0.17,0.67,0.1l2.28,4.03c0.12,0.27,0.48,0.32,0.67,0.09c1.21-1.44,4.9-5.69,8.58-8.22
						c0.27-0.19,0.64,0.02,0.63,0.35l-0.08,1.8c-0.02,0.35,0.39,0.55,0.66,0.32l7.06-5.76c0.26-0.22,0.66-0.03,0.66,0.31l0.05,1.69
						c-0.01,0.34,0.39,0.53,0.66,0.31l8.3-6.9c0.26-0.21,0.65-0.04,0.66,0.3l0.04,1.73c0.01,0.34,0.4,0.51,0.66,0.3l7.24-6.13
						c0.26-0.22,0.65-0.04,0.66,0.3l0.04,1.91c0.01,0.3,0.32,0.48,0.59,0.34l8.03-4.28c0.34-0.18,0.71,0.18,0.55,0.52l-0.76,1.6
						c-0.17,0.37,0.24,0.73,0.58,0.51l7.23-4.77c0.3-0.2,0.7,0.08,0.61,0.43l-0.83,3.33c-0.09,0.36,0.31,0.64,0.62,0.42l8.71-6.09
						c0.34-0.24,0.77,0.14,0.58,0.51l-0.59,1.14c-0.17,0.34,0.17,0.7,0.52,0.55l7.65-3.4c0.32-0.14,0.66,0.17,0.54,0.5l-0.62,1.7
						c-0.12,0.34,0.23,0.66,0.55,0.5l10.33-5.09c0.3-0.15,0.64,0.11,0.57,0.44l-0.42,2.03c-0.06,0.3,0.23,0.56,0.52,0.46
						L526.81,232.38z"/>
				</g>
			</g>
			<g>
				<g>
					<path class="st0" d="M265.42,130.63l118.92,165.15L356,278.7c-0.37-0.23-0.35-0.78,0.05-0.96l1.5-0.72
						c0.41-0.2,0.42-0.78,0.01-0.99l-9.92-4.91c-0.37-0.18-0.41-0.69-0.08-0.93l1.6-1.15c0.33-0.24,0.3-0.73-0.06-0.92l-11.7-6.44
						c-0.35-0.19-0.38-0.69-0.06-0.92l1.9-1.37c0.33-0.24,0.3-0.74-0.06-0.93c-2.19-1.17-8.52-4.72-12.71-8.71
						c-0.33-0.31-0.16-0.87,0.29-0.94l2.21-0.36c0.47-0.08,0.63-0.68,0.25-0.97l-9.54-7.44c-0.37-0.29-0.23-0.88,0.23-0.97
						l2.44-0.47c0.46-0.09,0.6-0.68,0.24-0.97l-10.94-8.69c-0.36-0.28-0.23-0.86,0.22-0.96l2.1-0.49c0.45-0.1,0.57-0.68,0.21-0.97
						l-9.68-7.54c-0.36-0.28-0.24-0.86,0.21-0.97l2.33-0.55c0.4-0.09,0.56-0.57,0.3-0.88l-7.53-9.02c-0.34-0.41,0.04-1.01,0.55-0.88
						l2.08,0.51c0.54,0.13,0.91-0.53,0.51-0.92l-7.91-7.85c-0.35-0.35-0.09-0.95,0.41-0.94l4.34,0.16c0.51,0.02,0.76-0.6,0.4-0.95
						l-9.97-9.39c-0.42-0.39-0.03-1.08,0.52-0.93l1.45,0.4c0.5,0.14,0.89-0.43,0.59-0.85l-6.31-8.76c-0.28-0.39,0.04-0.93,0.52-0.86
						l2.21,0.32c0.49,0.07,0.81-0.49,0.51-0.88l-10.38-12.85c-0.28-0.36-0.03-0.88,0.43-0.88l2.61-0.01c0.42,0,0.68-0.46,0.47-0.83
						L265.42,130.63z"/>
					<path class="st1" d="M265.42,130.63l118.92,165.15l-7.24-32.35c-0.09-0.41-0.6-0.55-0.88-0.25l-1.22,1.27
						c-0.3,0.31-0.83,0.14-0.89-0.29l-1.25-11.26c-0.05-0.39-0.5-0.58-0.82-0.35l-1.67,1.2c-0.31,0.22-0.75,0.05-0.82-0.33
						l0.56-14.66c-0.07-0.38-0.51-0.55-0.82-0.33l-5.22,3.04c-0.31,0.23-0.75,0.05-0.82-0.33c-0.41-2.42-1.78-9.64-4.27-14.91
						c-0.18-0.39-0.74-0.4-0.94-0.02l-1.09,2.08c-0.21,0.4-0.8,0.36-0.95-0.07l-4.07-11.52c-0.15-0.42-0.73-0.47-0.95-0.08
						l-1.28,2.26c-0.22,0.39-0.79,0.34-0.94-0.08l-4.81-13.24c-0.15-0.41-0.71-0.47-0.93-0.1l-1.18,1.92
						c-0.23,0.37-0.79,0.31-0.94-0.1l-4.12-11.67c-0.15-0.41-0.71-0.47-0.94-0.1l-1.3,2.12c-0.2,0.33-0.68,0.33-0.89,0l-6.23-10.11
						c-0.26-0.43-0.92-0.27-0.96,0.23l-0.19,2.3c-0.04,0.53-0.75,0.66-0.99,0.19l-5.01-10.13c-0.21-0.43-0.83-0.37-0.97,0.08
						l-1.25,4.3c-0.14,0.46-0.77,0.51-0.97,0.07l-5.82-12.59c-0.23-0.49-0.96-0.35-0.99,0.19l-0.09,1.68
						c-0.03,0.49-0.66,0.68-0.94,0.28l-6.38-8.87c-0.27-0.37-0.86-0.24-0.94,0.21l-0.42,2.33c-0.08,0.46-0.69,0.59-0.95,0.2
						l-9.23-12.41c-0.24-0.36-0.79-0.29-0.93,0.12l0.07,2.44c-0.13,0.38-0.62,0.48-0.89,0.18L265.42,130.63z"/>
				</g>
				<g>
					<path class="st0" d="M503.25,130.63L384.33,295.78l28.33-17.08c0.37-0.23,0.35-0.78-0.05-0.96l-1.5-0.72
						c-0.41-0.2-0.42-0.78-0.01-0.99l9.92-4.91c0.37-0.18,0.41-0.69,0.08-0.93l-1.6-1.15c-0.33-0.24-0.3-0.73,0.06-0.92l11.7-6.44
						c0.35-0.19,0.38-0.69,0.06-0.92l-1.9-1.37c-0.33-0.24-0.3-0.74,0.06-0.93c2.19-1.17,8.52-4.72,12.71-8.71
						c0.33-0.31,0.16-0.87-0.29-0.94l-2.21-0.36c-0.47-0.08-0.63-0.68-0.25-0.97l9.54-7.44c0.37-0.29,0.23-0.88-0.23-0.97
						l-2.44-0.47c-0.46-0.09-0.6-0.68-0.24-0.97l10.94-8.69c0.36-0.28,0.23-0.86-0.22-0.96l-2.1-0.49c-0.45-0.1-0.57-0.68-0.21-0.97
						l9.68-7.54c0.36-0.28,0.24-0.86-0.21-0.97l-2.33-0.55c-0.4-0.09-0.56-0.57-0.3-0.88l7.53-9.02c0.34-0.41-0.04-1.01-0.55-0.88
						l-2.08,0.51c-0.54,0.13-0.91-0.53-0.51-0.92l7.91-7.85c0.35-0.35,0.09-0.95-0.41-0.94l-4.34,0.16c-0.51,0.02-0.76-0.6-0.4-0.95
						l12.32-12.15c0.42-0.39,0.03-1.08-0.52-0.93l-1.45,0.4c-0.5,0.14-0.89-0.43-0.59-0.85l3.96-6c0.28-0.39-0.04-0.93-0.52-0.86
						l-2.21,0.32c-0.49,0.07-0.81-0.49-0.51-0.88l9.18-11.75c0.28-0.36,0.03-0.88-0.43-0.88l-2.61-0.01c-0.42,0-0.68-0.46-0.47-0.83
						L503.25,130.63z"/>
					<path class="st1" d="M503.25,130.63L384.33,295.78l7.24-32.35c0.09-0.41,0.6-0.55,0.88-0.25l1.22,1.27
						c0.3,0.31,0.83,0.14,0.89-0.29l1.25-11.26c0.05-0.39,0.5-0.58,0.82-0.35l1.67,1.2c0.31,0.22,0.75,0.05,0.82-0.33l-0.56-14.66
						c0.07-0.38,0.51-0.55,0.82-0.33l5.22,3.04c0.31,0.23,0.75,0.05,0.82-0.33c0.41-2.42,1.78-9.64,4.27-14.91
						c0.18-0.39,0.74-0.4,0.94-0.02l1.09,2.08c0.21,0.4,0.8,0.36,0.95-0.07l4.07-11.52c0.15-0.42,0.73-0.47,0.95-0.08l1.28,2.26
						c0.22,0.39,0.79,0.34,0.94-0.08l4.81-13.24c0.15-0.41,0.71-0.47,0.93-0.1l1.18,1.92c0.23,0.37,0.79,0.31,0.94-0.1l4.12-11.67
						c0.15-0.41,0.71-0.47,0.94-0.1l1.3,2.12c0.2,0.33,0.68,0.33,0.89,0l6.23-10.11c0.26-0.43,0.92-0.27,0.96,0.23l0.19,2.3
						c0.04,0.53,0.75,0.66,0.99,0.19l5.01-10.13c0.21-0.43,0.83-0.37,0.97,0.08l1.25,4.3c0.14,0.46,0.77,0.51,0.97,0.07l5.82-12.59
						c0.23-0.49,0.96-0.35,0.99,0.19l0.09,1.68c0.03,0.49,0.66,0.68,0.94,0.28l6.38-8.87c0.27-0.37,0.86-0.24,0.94,0.21l0.42,2.33
						c0.08,0.46,0.69,0.59,0.95,0.2l8.3-12.53c0.24-0.36,0.79-0.29,0.93,0.12l0.86,2.56c0.13,0.38,0.62,0.48,0.89,0.18
						L503.25,130.63z"/>
				</g>
			</g>
			<g>
				<path class="st1" d="M384.33,57.13v238.65l-15.26-35.68c-0.2-0.47,0.2-0.98,0.7-0.88l1.92,0.35c0.53,0.1,0.93-0.46,0.68-0.93
					l-6.08-11.48c-0.23-0.43,0.08-0.94,0.57-0.94h2.32c0.47,0,0.78-0.49,0.58-0.92l-6.72-14.16c-0.2-0.43,0.11-0.92,0.58-0.92h2.74
					c0.47,0,0.79-0.5,0.58-0.92c-1.28-2.62-4.88-10.34-6.13-17.01c-0.1-0.52,0.45-0.93,0.92-0.69l2.35,1.18
					c0.5,0.25,1.06-0.22,0.9-0.75L361,198.4c-0.15-0.53,0.38-0.99,0.89-0.76l2.65,1.22c0.5,0.23,1.04-0.23,0.89-0.76l-4.46-15.77
					c-0.15-0.52,0.37-0.97,0.86-0.77l2.33,0.97c0.5,0.21,1.01-0.25,0.86-0.77l-4.04-13.81c-0.15-0.52,0.36-0.98,0.86-0.77l2.59,1.08
					c0.44,0.18,0.92-0.16,0.89-0.64l-0.99-13.75c-0.04-0.62,0.73-0.93,1.13-0.46l1.63,1.9c0.42,0.49,1.23,0.12,1.12-0.52
					l-2.15-12.89c-0.1-0.58,0.57-0.97,1.03-0.61l4.02,3.13c0.47,0.36,1.14-0.05,1.02-0.63l-3.05-15.77
					c-0.13-0.66,0.71-1.05,1.13-0.53l1.11,1.37c0.38,0.47,1.14,0.2,1.14-0.4v-12.66c0-0.57,0.68-0.86,1.09-0.46l1.89,1.83
					c0.42,0.4,1.11,0.09,1.09-0.49l-0.69-17.47c-0.02-0.53,0.58-0.86,1.02-0.55l2.49,1.78c0.4,0.29,0.97,0.03,1.01-0.46
					L384.33,57.13z"/>
				<path class="st0" d="M384.33,57.13v238.65l15.29-35.73c0.19-0.45-0.19-0.93-0.67-0.84l-2.04,0.37c-0.5,0.09-0.89-0.44-0.65-0.89
					l6.13-11.58c0.22-0.41-0.08-0.9-0.54-0.9h-2.41c-0.45,0-0.75-0.47-0.55-0.87l6.76-14.24c0.19-0.41-0.1-0.87-0.55-0.87h-2.84
					c-0.45,0-0.75-0.47-0.55-0.88c1.27-2.58,4.91-10.39,6.16-17.11c0.09-0.5-0.42-0.89-0.88-0.66l-2.47,1.23
					c-0.48,0.24-1.01-0.21-0.86-0.72l4.02-13.75c0.15-0.5-0.37-0.95-0.84-0.73l-2.77,1.28c-0.47,0.22-0.99-0.22-0.85-0.72
					l4.49-15.89c0.14-0.49-0.35-0.93-0.82-0.73l-2.45,1.02c-0.48,0.2-0.97-0.24-0.82-0.74l4.08-13.93c0.14-0.49-0.35-0.93-0.82-0.74
					l-2.7,1.12c-0.42,0.18-0.88-0.15-0.85-0.61l1-13.89c0.04-0.59-0.69-0.89-1.08-0.44l-1.76,2.06c-0.4,0.47-1.17,0.11-1.07-0.5
					l2.18-13.07c0.09-0.55-0.54-0.93-0.98-0.58l-4.14,3.23c-0.45,0.35-1.08-0.04-0.98-0.6l3.09-15.97c0.12-0.63-0.68-1-1.08-0.5
					l-1.24,1.53c-0.36,0.45-1.09,0.19-1.09-0.38v-12.81c0-0.54-0.65-0.82-1.04-0.44l-1.99,1.93c-0.4,0.38-1.06,0.09-1.04-0.46
					l0.69-17.61c0.02-0.51-0.55-0.82-0.97-0.52l-2.58,1.85c-0.38,0.28-0.92,0.03-0.97-0.44L384.33,57.13z"/>
			</g>
			<g>
				<g>
					<path class="st0" d="M302.38,351.81l81.95-56.03l-9.3,14.74c-0.12,0.19-0.37,0.14-0.44-0.09l-0.25-0.88
						c-0.07-0.24-0.34-0.28-0.45-0.07l-2.77,5.23c-0.1,0.19-0.34,0.19-0.43-0.02l-0.45-0.96c-0.09-0.2-0.32-0.21-0.43-0.03
						l-3.56,6.13c-0.11,0.18-0.34,0.17-0.43-0.03l-0.53-1.14c-0.09-0.2-0.32-0.21-0.43-0.02c-0.65,1.15-2.61,4.46-4.66,6.55
						c-0.16,0.16-0.41,0.03-0.42-0.22l-0.05-1.26c-0.01-0.27-0.28-0.39-0.43-0.2l-3.91,4.86c-0.15,0.19-0.42,0.07-0.43-0.19
						l-0.09-1.39c-0.02-0.26-0.28-0.38-0.43-0.19l-4.55,5.56c-0.15,0.18-0.41,0.07-0.43-0.18l-0.12-1.2
						c-0.03-0.26-0.28-0.36-0.43-0.18l-3.96,4.93c-0.15,0.18-0.41,0.08-0.43-0.18l-0.13-1.34c-0.02-0.23-0.23-0.35-0.39-0.22
						l-4.53,3.64c-0.2,0.16-0.46-0.08-0.38-0.36l0.34-1.13c0.09-0.29-0.2-0.54-0.4-0.34l-4.01,3.92c-0.18,0.18-0.44-0.01-0.41-0.28
						l0.3-2.41c0.03-0.28-0.24-0.46-0.41-0.28l-4.83,4.98c-0.2,0.21-0.5-0.05-0.4-0.35l0.26-0.78c0.09-0.27-0.15-0.52-0.36-0.38
						l-4.35,2.97c-0.19,0.13-0.43-0.08-0.37-0.35l0.26-1.22c0.06-0.27-0.18-0.48-0.38-0.34l-5.87,4.39
						c-0.18,0.13-0.41-0.04-0.38-0.29l0.13-1.45c0.02-0.24-0.18-0.41-0.35-0.31L302.38,351.81z"/>
					<path class="st1" d="M302.38,351.81l81.95-56.03l-15.23,2.02c-0.19,0.03-0.28,0.3-0.16,0.48l0.52,0.76
						c0.13,0.19,0.02,0.47-0.18,0.48l-5.23-0.01c-0.18,0.01-0.29,0.24-0.2,0.44l0.47,1.01c0.09,0.19-0.02,0.42-0.19,0.44l-6.7-1.23
						c-0.18,0.01-0.28,0.25-0.19,0.44l1.13,3.1c0.09,0.19-0.02,0.42-0.2,0.44c-1.13,0.08-4.52,0.39-7.07,1.45
						c-0.19,0.08-0.22,0.39-0.06,0.52l0.9,0.74c0.17,0.14,0.12,0.47-0.08,0.53l-5.33,1.64c-0.2,0.06-0.25,0.38-0.09,0.52l0.8,0.77
						c0.17,0.15,0.12,0.46-0.08,0.52l-6.33,1.86c-0.2,0.06-0.25,0.36-0.09,0.52l0.82,0.78c0.16,0.15,0.1,0.46-0.09,0.52l-5.57,1.57
						c-0.2,0.06-0.25,0.36-0.09,0.52l0.91,0.86c0.14,0.13,0.12,0.4-0.05,0.5l-4.96,2.85c-0.21,0.12-0.17,0.5,0.06,0.55l1.05,0.25
						c0.24,0.06,0.27,0.46,0.04,0.56l-4.91,2.16c-0.21,0.09-0.21,0.44-0.01,0.55l1.91,0.97c0.21,0.1,0.19,0.46-0.02,0.55l-6.08,2.46
						c-0.24,0.1-0.21,0.52,0.04,0.57l0.77,0.16c0.22,0.05,0.28,0.41,0.08,0.54l-4.4,3.01c-0.19,0.13-0.15,0.46,0.05,0.54l1.05,0.38
						c0.21,0.08,0.24,0.42,0.04,0.54l-6.18,3.85c-0.18,0.11-0.17,0.42,0.01,0.53l1.13,0.64c0.17,0.1,0.19,0.38,0.04,0.51
						L302.38,351.81z"/>
				</g>
				<g>
					<path class="st0" d="M466.29,351.81l-81.95-56.03l9.3,14.74c0.12,0.19,0.37,0.14,0.44-0.09l0.25-0.88
						c0.07-0.24,0.34-0.28,0.45-0.07l2.77,5.23c0.1,0.19,0.34,0.19,0.43-0.02l0.45-0.96c0.09-0.2,0.32-0.21,0.43-0.03l3.56,6.13
						c0.11,0.18,0.34,0.17,0.43-0.03l0.53-1.14c0.09-0.2,0.32-0.21,0.43-0.02c0.65,1.15,2.61,4.46,4.66,6.55
						c0.16,0.16,0.41,0.03,0.42-0.22l0.05-1.26c0.01-0.27,0.28-0.39,0.43-0.2l3.91,4.86c0.15,0.19,0.42,0.07,0.43-0.19l0.09-1.39
						c0.02-0.26,0.28-0.38,0.43-0.19l4.55,5.56c0.15,0.18,0.41,0.07,0.43-0.18l0.12-1.2c0.03-0.26,0.28-0.36,0.43-0.18l3.96,4.93
						c0.15,0.18,0.41,0.08,0.43-0.18l0.13-1.34c0.02-0.23,0.23-0.35,0.39-0.22l4.53,3.64c0.2,0.16,0.46-0.08,0.38-0.36l-0.34-1.13
						c-0.09-0.29,0.2-0.54,0.4-0.34l4.01,3.92c0.18,0.18,0.44-0.01,0.41-0.28l-0.3-2.41c-0.03-0.28,0.24-0.46,0.41-0.28l4.83,4.98
						c0.2,0.21,0.5-0.05,0.4-0.35l-0.26-0.78c-0.09-0.27,0.15-0.52,0.36-0.38l4.35,2.97c0.19,0.13,0.43-0.08,0.37-0.35l-0.26-1.22
						c-0.06-0.27,0.18-0.48,0.38-0.34l5.87,4.39c0.18,0.13,0.41-0.04,0.38-0.29l-0.13-1.45c-0.02-0.24,0.18-0.41,0.35-0.31
						L466.29,351.81z"/>
					<path class="st1" d="M466.29,351.81l-81.95-56.03l15.23,2.02c0.19,0.03,0.28,0.3,0.16,0.48l-0.52,0.76
						c-0.13,0.19-0.02,0.47,0.18,0.48l5.23-0.01c0.18,0.01,0.29,0.24,0.2,0.44l-0.47,1.01c-0.09,0.19,0.02,0.42,0.19,0.44l6.7-1.23
						c0.18,0.01,0.28,0.25,0.19,0.44l-1.13,3.1c-0.09,0.19,0.02,0.42,0.2,0.44c1.13,0.08,4.52,0.39,7.07,1.45
						c0.19,0.08,0.22,0.39,0.06,0.52l-0.9,0.74c-0.17,0.14-0.12,0.47,0.08,0.53l5.33,1.64c0.2,0.06,0.25,0.38,0.09,0.52l-0.8,0.77
						c-0.17,0.15-0.12,0.46,0.08,0.52l6.33,1.86c0.2,0.06,0.25,0.36,0.09,0.52l-0.82,0.78c-0.16,0.15-0.1,0.46,0.09,0.52l5.57,1.57
						c0.2,0.06,0.25,0.36,0.09,0.52l-0.91,0.86c-0.14,0.13-0.12,0.4,0.05,0.5l4.96,2.85c0.21,0.12,0.17,0.5-0.06,0.55l-1.05,0.25
						c-0.24,0.06-0.27,0.46-0.04,0.56l4.91,2.16c0.21,0.09,0.21,0.44,0.01,0.55l-1.91,0.97c-0.21,0.1-0.19,0.46,0.02,0.55l6.08,2.46
						c0.24,0.1,0.21,0.52-0.04,0.57l-0.77,0.16c-0.22,0.05-0.28,0.41-0.08,0.54l4.4,3.01c0.19,0.13,0.15,0.46-0.05,0.54l-1.05,0.38
						c-0.21,0.08-0.24,0.42-0.04,0.54l6.18,3.85c0.18,0.11,0.17,0.42-0.01,0.53l-1.13,0.64c-0.17,0.1-0.19,0.38-0.04,0.51
						L466.29,351.81z"/>
				</g>
			</g>
		</g>
	</g>
</g>
</svg>
